<svg width="148" height="144" viewBox="0 0 148 144" fill="none" xmlns="http://www.w3.org/2000/svg">
<g clip-path="url(#clip0_1428_2229)">
<path d="M77.3457 0.831421C91.017 0.83142 104.389 4.83476 115.811 12.3473C127.234 19.8598 136.206 30.5526 141.621 43.1059C147.036 55.6591 148.656 69.5232 146.282 82.9868C143.908 96.4505 137.644 108.924 128.262 118.868L77.3457 70.8315V0.831421Z" fill="#0D6EFD"/>
<path d="M120.916 122.037C112.484 130.975 101.848 137.535 90.0759 141.059C78.3046 144.583 65.8129 144.947 53.8566 142.113C41.9002 139.279 30.9004 133.348 21.9628 124.916C13.0251 116.484 6.46455 105.848 2.94043 94.0762L69.9997 74L120.916 122.037Z" fill="#6F42C1"/>
<path d="M2.94073 94.0762C-0.188028 83.6254 -0.830884 72.588 1.06346 61.8446C2.9578 51.1013 7.33691 40.9493 13.8514 32.1989C20.3658 23.4485 28.8353 16.3417 38.5841 11.4457C48.3328 6.54972 59.0909 4 70 4V74L2.94073 94.0762Z" fill="#FFC107"/>
</g>
<defs>
<clipPath id="clip0_1428_2229">
<rect width="148" height="144" fill="white"/>
</clipPath>
</defs>
</svg>
