<svg width="148" height="144" viewBox="0 0 148 144" fill="none" xmlns="http://www.w3.org/2000/svg">
<path d="M77.3457 0.831362C91.017 0.831361 104.389 4.8347 115.811 12.3472C127.234 19.8597 136.206 30.5525 141.621 43.1058C147.036 55.659 148.656 69.5231 146.282 82.9867C143.908 96.4504 137.644 108.924 128.262 118.868L77.3457 70.8314L77.3457 0.831362Z" fill="#DAEBF5"/>
<path d="M120.916 122.037C112.484 130.975 101.848 137.535 90.0762 141.059C78.3049 144.583 65.8132 144.947 53.8569 142.113C41.9005 139.279 30.9007 133.348 21.9631 124.916C13.0254 116.484 6.46485 105.848 2.94073 94.0762L70 74L120.916 122.037Z" fill="#77A5D3"/>
<path d="M2.94073 94.0762C-0.188032 83.6254 -0.830888 72.588 1.06346 61.8446C2.9578 51.1013 7.33691 40.9493 13.8514 32.1989C20.3658 23.4485 28.8353 16.3417 38.5841 11.4457C48.3328 6.54972 59.0909 4 70 4L70 74L2.94073 94.0762Z" fill="#457AB3"/>
</svg>
