<?xml version="1.0" encoding="UTF-8"?>
<svg width="30px" height="30px" viewBox="0 0 30 30" version="1.1" xmlns="http://www.w3.org/2000/svg" xmlns:xlink="http://www.w3.org/1999/xlink">
    <title>icon-euro</title>
    <g id="Avalon-Dashboard" stroke="none" stroke-width="1" fill="none" fill-rule="evenodd">
        <g id="avalon-dashboard-/-banking" transform="translate(-567.000000, -213.000000)">
            <g id="row-currencies" transform="translate(265.000000, 185.000000)">
                <g id="box-euro" transform="translate(292.000000, 0.000000)">
                    <g id="currency" transform="translate(10.000000, 23.000000)">
                        <g id="icon-euro" transform="translate(0.000000, 5.000000)">
                            <circle id="icon-bg" fill="#D63384" cx="15" cy="15" r="15"></circle>
                            <path d="M19.8928701,20.4441934 C19.8705487,20.3549076 19.814745,20.2656217 19.7254592,20.2098181 C19.6361734,20.1651752 19.5245661,20.1540145 19.4352803,20.1874966 C19.4241196,20.1874966 18.6317079,20.4553541 17.6607246,20.4553541 C15.7634009,20.4553541 14.1562561,19.3616028 13.4419696,17.6205293 L17.7611712,17.6205293 C17.9285821,17.6205293 18.0736715,17.4977613 18.1071537,17.3303504 L18.3750112,16.0803489 C18.3973326,15.9799023 18.3750112,15.8682951 18.3080468,15.7790092 C18.2410824,15.7008842 18.1406359,15.6450805 18.0290286,15.6450805 L12.9062547,15.6450805 C12.8839332,15.2098121 12.8727725,14.8303474 12.9062547,14.4732041 L18.3526897,14.4732041 C18.5312614,14.4732041 18.6763508,14.3504361 18.709833,14.1830252 L18.9776905,12.9107023 C19.0000119,12.8102557 18.9665297,12.6986484 18.8995654,12.6205233 C18.832601,12.5312375 18.7321545,12.4865946 18.6205472,12.4865946 L13.3973267,12.4865946 C14.1450954,10.8236462 15.718758,9.80801999 17.5937602,9.80801999 C18.3861719,9.80801999 19.1451014,9.99775236 19.1562621,9.99775236 C19.3459945,10.053556 19.5357268,9.94194872 19.5803698,9.75221635 L20.060281,7.97766066 C20.0826025,7.88837484 20.0714418,7.78792829 20.0267989,7.7098032 C19.9709952,7.63167811 19.8928701,7.56471374 19.8035843,7.54239229 C19.7589414,7.53123156 18.7991188,7.28569555 17.6384032,7.28569555 C14.3013456,7.28569555 11.4441993,9.36159088 10.4508946,12.4865946 L9.35714328,12.4865946 C9.15625019,12.4865946 9,12.6428448 9,12.8437379 L9,14.1160608 C9,14.3169539 9.15625019,14.4732041 9.35714328,14.4732041 L10.104912,14.4732041 C10.0825906,14.8638296 10.0825906,15.2879372 10.0937513,15.6450805 L9.35714328,15.6450805 C9.15625019,15.6450805 9,15.8124914 9,16.0022238 L9,17.263386 C9,17.4531184 9.15625019,17.6205293 9.35714328,17.6205293 L10.4174124,17.6205293 C11.3549135,20.9017832 14.1562561,23 17.6384032,23 C18.9776905,23 20.0156381,22.6428567 20.060281,22.631696 C20.227692,22.5758924 20.3281385,22.3973207 20.2834956,22.2187491 L19.8928701,20.4441934 Z" id="icon-currency" fill="#FFFFFF"></path>
                        </g>
                    </g>
                </g>
            </g>
        </g>
    </g>
</svg>