<?xml version="1.0" encoding="UTF-8"?>
<svg width="30px" height="30px" viewBox="0 0 30 30" version="1.1" xmlns="http://www.w3.org/2000/svg" xmlns:xlink="http://www.w3.org/1999/xlink">
    <title>icon-dollar</title>
    <g id="Avalon-Dashboard" stroke="none" stroke-width="1" fill="none" fill-rule="evenodd">
        <g id="avalon-dashboard-/-banking" transform="translate(-275.000000, -213.000000)">
            <g id="row-currencies" transform="translate(265.000000, 185.000000)">
                <g id="currency" transform="translate(10.000000, 23.000000)">
                    <g id="icon-dollar" transform="translate(0.000000, 5.000000)">
                        <circle id="icon-bg" fill="#6F42C1" cx="15" cy="15" r="15"></circle>
                        <path d="M19.9151916,18.0825846 C19.9151916,15.3928493 17.5937602,14.4888303 15.5401864,13.6964187 C13.9553631,13.0825787 12.5937543,12.5580245 12.5937543,11.3749873 C12.5937543,10.3593611 13.5758983,9.65623529 14.9933107,9.65623529 C16.6674199,9.65623529 18.0178679,10.8504331 18.0290286,10.8615939 C18.1183144,10.9285582 18.218761,10.9620404 18.3303683,10.939719 C18.4419755,10.9285582 18.5312614,10.8615939 18.587065,10.7611473 L19.4910839,9.13168109 C19.569209,8.99775236 19.5468876,8.83034144 19.4352803,8.70757344 C19.3906374,8.66293053 18.1852788,7.43525049 15.9196511,7.17855376 L15.9196511,5.2142657 C15.9196511,5.01337261 15.7634009,4.85712242 15.5625078,4.85712242 L14.0558096,4.85712242 C13.8660772,4.85712242 13.6986663,5.01337261 13.6986663,5.2142657 L13.6986663,7.22319667 C11.3660742,7.66962577 9.75892948,9.36605637 9.75892948,11.4196302 C9.75892948,14.2209729 12.2589325,15.2254384 14.2678634,16.01785 C15.7745616,16.6205293 17.0915275,17.1450835 17.0915275,18.2165133 C17.0915275,19.4776756 15.9084904,20.0580334 14.8147391,20.0580334 C12.8392903,20.0580334 11.2767884,18.5624959 11.254467,18.5513352 C11.1875026,18.4732101 11.0870561,18.4397279 10.9866095,18.4508886 C10.886163,18.4620494 10.7857164,18.5066923 10.7299128,18.5848174 L9.58035783,20.0915156 C9.47991129,20.2254443 9.49107201,20.4151767 9.60267929,20.5491054 C9.65848293,20.6160698 11.0870561,22.1785716 13.6986663,22.5468757 L13.6986663,24.500003 C13.6986663,24.7008961 13.8660772,24.8571463 14.0558096,24.8571463 L15.5625078,24.8571463 C15.7634009,24.8571463 15.9196511,24.7008961 15.9196511,24.500003 L15.9196511,22.5468757 C18.2857254,22.1562502 19.9151916,20.359373 19.9151916,18.0825846 Z" id="icon-currency" fill="#FFFFFF"></path>
                    </g>
                </g>
            </g>
        </g>
    </g>
</svg>