<?xml version="1.0" encoding="UTF-8"?>
<svg width="30px" height="30px" viewBox="0 0 30 30" version="1.1" xmlns="http://www.w3.org/2000/svg" xmlns:xlink="http://www.w3.org/1999/xlink">
    <title>icon-gold</title>
    <g id="Avalon-Dashboard" stroke="none" stroke-width="1" fill="none" fill-rule="evenodd">
        <g id="avalon-dashboard-/-banking" transform="translate(-1151.000000, -213.000000)">
            <g id="row-currencies" transform="translate(265.000000, 185.000000)">
                <g id="box-gold" transform="translate(876.000000, 0.000000)">
                    <g id="icon-gold" transform="translate(10.000000, 28.000000)">
                        <circle id="icon-bg" fill="#FD7E14" cx="15" cy="15" r="15"></circle>
                        <path d="M25.9302457,12.0265591 L23.6309593,8.32247046 C23.6309593,8.32247046 23.4736696,8.14908295 23.3352798,8.12250848 L16.7809802,7.00616305 C16.6526704,6.98394505 16.5218406,7.02249981 16.4235607,7.1105005 C16.4235607,7.1105005 6.19699686,16.258434 6.19594686,16.2595232 C6.08716703,16.3588507 6.06196707,16.4773467 6.06070707,16.4821388 L5.02540871,20.4277937 C4.90864889,20.8020144 5.22574839,20.9575404 5.33956821,20.9876001 L16.6008004,23.9837623 C16.88787,24.0597827 17.0382297,23.8450087 17.0497797,23.8304146 L25.9012658,12.559791 C26.0213856,12.4075324 26.0329356,12.1921049 25.9302457,12.0265591 Z M16.8410401,7.9382298 L22.3394614,8.87465303 L19.4969059,11.7638639 L13.692935,17.6644847 L7.44712489,16.3403357 L16.8410401,7.9382298 Z M16.7793002,22.7345445 L14.3787939,18.2408457 L23.18681,9.28699292 L25.0205272,12.2413331 L16.7793002,22.7345445 Z M5.98867719,20.221297 L6.79906591,17.1323419 L13.5480353,18.5619176 L15.8332517,22.8404067 L5.98867719,20.221297 Z" id="icon-currency" fill="#FFFFFF" fill-rule="nonzero"></path>
                    </g>
                </g>
            </g>
        </g>
    </g>
</svg>