<?xml version="1.0" encoding="UTF-8"?>
<svg width="30px" height="30px" viewBox="0 0 30 30" version="1.1" xmlns="http://www.w3.org/2000/svg" xmlns:xlink="http://www.w3.org/1999/xlink">
    <title>icon-gbp</title>
    <g id="Avalon-Dashboard" stroke="none" stroke-width="1" fill="none" fill-rule="evenodd">
        <g id="avalon-dashboard-/-banking" transform="translate(-859.000000, -213.000000)">
            <g id="row-currencies" transform="translate(265.000000, 185.000000)">
                <g id="box-gbp" transform="translate(584.000000, 0.000000)">
                    <g id="currency" transform="translate(10.000000, 23.000000)">
                        <g id="icon-gbp" transform="translate(0.000000, 5.000000)">
                            <circle id="icon-bg" fill="#0D6EFD" cx="15" cy="15" r="15"></circle>
                            <path d="M20.3839421,17.5468697 C20.3839421,17.3459766 20.227692,17.1897264 20.0267989,17.1897264 L18.218761,17.1897264 C18.0178679,17.1897264 17.8616177,17.3459766 17.8616177,17.5468697 L17.8616177,19.5669614 L13.2410765,19.5669614 L13.2410765,15.3370456 L16.6450984,15.3370456 C16.8459915,15.3370456 17.0022417,15.1807954 17.0022417,14.9799023 L17.0022417,13.517847 C17.0022417,13.3169539 16.8459915,13.1607037 16.6450984,13.1607037 L13.2410765,13.1607037 L13.2410765,10.7611473 C13.2410765,9.6227531 14.0892918,8.86382363 15.350454,8.86382363 C16.4776875,8.86382363 17.4375101,9.6227531 17.4486708,9.63391383 C17.5156352,9.68971747 17.6160817,9.72319965 17.7053675,9.71203892 C17.8058141,9.7008782 17.8839392,9.65623529 17.9509035,9.57811019 L19.1004585,8.16069779 C19.2120657,8.01560833 19.200905,7.80355451 19.0669763,7.6807865 C19.0000119,7.62498286 17.5602781,6.28569555 15.3281325,6.28569555 C12.4933077,6.28569555 10.4397339,8.12721561 10.4397339,10.6718615 L10.4397339,13.1607037 L9.37946474,13.1607037 C9.17857164,13.1607037 9.02232146,13.3169539 9.02232146,13.517847 L9.02232146,14.9799023 C9.02232146,15.1807954 9.17857164,15.3370456 9.37946474,15.3370456 L10.4397339,15.3370456 L10.4397339,19.6116043 L9.35714328,19.6116043 C9.15625019,19.6116043 9,19.7790152 9,19.9687476 L9,21.6428567 C9,21.8437498 9.15625019,22 9.35714328,22 L20.0267989,22 C20.227692,22 20.3839421,21.8437498 20.3839421,21.6428567 L20.3839421,17.5468697 Z" id="icon-currency" fill="#FFFFFF"></path>
                        </g>
                    </g>
                </g>
            </g>
        </g>
    </g>
</svg>