<svg width="120" height="92" viewBox="0 0 120 92" fill="none" xmlns="http://www.w3.org/2000/svg">
<g clip-path="url(#clip0_1427_2077)">
<path d="M99.5832 3.99512H4.10275C3.57406 3.99591 3.06724 4.20626 2.6934 4.58008C2.31956 4.9539 2.10919 5.46068 2.1084 5.98934V6.31094C2.10919 6.8396 2.31956 7.34638 2.6934 7.72019C3.06724 8.09401 3.57406 8.30437 4.10275 8.30516H99.5832C100.112 8.30437 100.619 8.09401 100.993 7.72019C101.366 7.34638 101.577 6.8396 101.578 6.31094V5.98934C101.577 5.46068 101.366 4.9539 100.993 4.58008C100.619 4.20626 100.112 3.99591 99.5832 3.99512V3.99512Z" fill="#F0F0F0"/>
<path d="M15.6255 6.94596H6.53686C6.33351 6.94566 6.13858 6.86468 5.9949 6.72079C5.85121 6.5769 5.77051 6.38187 5.77051 6.17853C5.77051 5.97519 5.85121 5.78016 5.9949 5.63627C6.13858 5.49239 6.33351 5.4114 6.53686 5.4111H15.6255C16.6153 5.39729 16.6252 6.9599 15.6255 6.94596Z" fill="white"/>
<path d="M42.813 6.94596H33.7244C33.521 6.94566 33.3261 6.86468 33.1824 6.72079C33.0387 6.5769 32.958 6.38187 32.958 6.17853C32.958 5.97519 33.0387 5.78016 33.1824 5.63627C33.3261 5.49239 33.521 5.4114 33.7244 5.4111H42.813C43.8028 5.39729 43.8127 6.9599 42.813 6.94596Z" fill="white"/>
<path d="M70.0025 6.94596H60.9138C60.7105 6.94566 60.5155 6.86468 60.3718 6.72079C60.2282 6.5769 60.1475 6.38187 60.1475 6.17853C60.1475 5.97519 60.2282 5.78016 60.3718 5.63627C60.5155 5.49239 60.7105 5.4114 60.9138 5.4111H70.0025C70.9922 5.39729 71.0021 6.9599 70.0025 6.94596Z" fill="white"/>
<path d="M95.7809 7.02873H86.6923C86.4887 7.02873 86.2935 6.94787 86.1496 6.80395C86.0057 6.66003 85.9248 6.46483 85.9248 6.2613C85.9248 6.05776 86.0057 5.86256 86.1496 5.71864C86.2935 5.57472 86.4887 5.49387 86.6923 5.49387H95.7809C96.7707 5.48005 96.7806 7.04267 95.7809 7.02873Z" fill="#0D6EFD"/>
<path d="M81.6011 3.99512H81.2695V8.30516H81.6011V3.99512Z" fill="white"/>
<path d="M47.2918 67.7858H8.32427C7.97706 67.7854 7.64419 67.6473 7.39867 67.4018C7.15316 67.1563 7.01505 66.8234 7.01465 66.4762V60.7695C7.01505 60.4223 7.15316 60.0895 7.39867 59.844C7.64419 59.5985 7.97706 59.4604 8.32427 59.46H47.2918C47.639 59.4604 47.9719 59.5985 48.2174 59.844C48.4629 60.0895 48.601 60.4223 48.6014 60.7695V66.4762C48.601 66.8234 48.4629 67.1563 48.2174 67.4018C47.9719 67.6473 47.639 67.7854 47.2918 67.7858V67.7858Z" fill="#F0F0F0"/>
<path d="M43.5059 66.9026H9.20805C8.86084 66.9022 8.52797 66.7641 8.28246 66.5186C8.03695 66.2731 7.89884 65.9402 7.89844 65.5931V61.6536C7.89884 61.3065 8.03695 60.9736 8.28246 60.7281C8.52797 60.4826 8.86084 60.3445 9.20805 60.3441H46.4087C46.7559 60.3445 47.0888 60.4826 47.3343 60.7281C47.5798 60.9736 47.7179 61.3065 47.7183 61.6536V62.6904C47.717 63.8072 47.2728 64.8778 46.4831 65.6675C45.6934 66.4571 44.6227 66.9013 43.5059 66.9026V66.9026Z" fill="white"/>
<path d="M31.6745 63.217H16.0126C15.923 63.217 15.8371 63.1814 15.7737 63.118C15.7104 63.0547 15.6748 62.9688 15.6748 62.8792C15.6748 62.7897 15.7104 62.7038 15.7737 62.6404C15.8371 62.5771 15.923 62.5415 16.0126 62.5415H31.6745C31.7641 62.5415 31.85 62.5771 31.9134 62.6404C31.9767 62.7038 32.0123 62.7897 32.0123 62.8792C32.0123 62.9688 31.9767 63.0547 31.9134 63.118C31.85 63.1814 31.7641 63.217 31.6745 63.217V63.217Z" fill="#E6E6E6"/>
<path d="M39.6037 64.5983H16.0133C15.9689 64.5984 15.9249 64.5897 15.8838 64.5728C15.8428 64.5559 15.8054 64.531 15.774 64.4997C15.7425 64.4683 15.7176 64.431 15.7006 64.39C15.6836 64.349 15.6748 64.305 15.6748 64.2606C15.6748 64.2162 15.6836 64.1722 15.7006 64.1312C15.7176 64.0901 15.7425 64.0529 15.774 64.0215C15.8054 63.9901 15.8428 63.9653 15.8838 63.9483C15.9249 63.9314 15.9689 63.9228 16.0133 63.9229H39.6037C39.6931 63.9231 39.7788 63.9587 39.842 64.022C39.9052 64.0854 39.9407 64.1711 39.9407 64.2606C39.9407 64.35 39.9052 64.4358 39.842 64.4991C39.7788 64.5624 39.6931 64.5981 39.6037 64.5983V64.5983Z" fill="#E6E6E6"/>
<path d="M49.7812 52.9308H5.34995C4.99541 52.9304 4.65551 52.7894 4.40481 52.5387C4.15412 52.288 4.0131 51.9481 4.0127 51.5936V17.6325C4.0131 17.278 4.15412 16.9381 4.40482 16.6875C4.65552 16.4368 4.99542 16.2958 5.34995 16.2954H49.7812C50.1357 16.2958 50.4756 16.4368 50.7263 16.6875C50.977 16.9381 51.118 17.278 51.1184 17.6325V51.5936C51.118 51.9481 50.977 52.288 50.7263 52.5387C50.4756 52.7894 50.1357 52.9304 49.7812 52.9308V52.9308Z" fill="white"/>
<path d="M49.7809 53.0964H5.34973C4.95124 53.096 4.5692 52.9375 4.28743 52.6557C4.00565 52.374 3.84714 51.992 3.84668 51.5935V17.6324C3.84714 17.2339 4.00566 16.8519 4.28743 16.5702C4.56921 16.2884 4.95124 16.13 5.34973 16.1295H49.7809C50.1794 16.13 50.5614 16.2884 50.8432 16.5702C51.125 16.8519 51.2835 17.2339 51.2839 17.6324V51.5935C51.2835 51.992 51.125 52.374 50.8432 52.6557C50.5614 52.9375 50.1794 53.096 49.7809 53.0964ZM5.34973 16.4611C5.03915 16.4614 4.74139 16.5849 4.52177 16.8045C4.30215 17.0241 4.17861 17.3218 4.17824 17.6324V51.5935C4.17859 51.9041 4.30213 52.2018 4.52175 52.4214C4.74137 52.641 5.03914 52.7646 5.34973 52.7649H49.7809C50.0915 52.7646 50.3893 52.641 50.6089 52.4214C50.8285 52.2018 50.952 51.9041 50.9524 51.5935V17.6324C50.952 17.3218 50.8285 17.0241 50.6088 16.8045C50.3892 16.5849 50.0915 16.4614 49.7809 16.4611L5.34973 16.4611Z" fill="#F0F0F0"/>
<path d="M4.11523 46.4657V51.5936C4.11572 51.9209 4.24595 52.2346 4.47738 52.466C4.70881 52.6974 5.02255 52.8277 5.34984 52.8281H49.7811C50.1084 52.8277 50.4222 52.6974 50.6536 52.466C50.885 52.2346 51.0152 51.9209 51.0157 51.5936V46.4657H4.11523Z" fill="#F0F0F0"/>
<path d="M4.53421 16.5117L4.35547 16.7909L50.9266 46.6052L51.1054 46.3261L4.53421 16.5117Z" fill="#F0F0F0"/>
<path d="M51.0575 16.5118L4.48633 46.3262L4.66507 46.6053L51.2362 16.791L51.0575 16.5118Z" fill="#F0F0F0"/>
<path d="M90.4112 89.6908L88.3572 89.6906L87.3799 81.7686L90.4116 81.7687L90.4112 89.6908Z" fill="#A0616A"/>
<path d="M90.3569 89.0195L88.1653 88.1293L88.1006 88.1028L86.8904 89.0195C86.2263 89.0194 85.5878 89.2757 85.1081 89.735C84.6284 90.1943 84.3445 90.821 84.3158 91.4845C84.3125 91.521 84.3125 91.5591 84.3125 91.5972V91.6818H90.9355V89.0195H90.3569Z" fill="#2F2E41"/>
<path d="M85.6014 87.7795L83.6637 88.4612L80.1123 81.3123L82.972 80.3064L85.6014 87.7795Z" fill="#A0616A"/>
<path d="M85.3267 87.1644L82.9638 87.0521L82.894 87.0485L82.0567 88.3149C81.4302 88.5353 80.913 88.989 80.6129 89.5814C80.3129 90.1739 80.2532 90.8593 80.4463 91.4947C80.4553 91.5302 80.4679 91.5661 80.4806 91.6021L80.5087 91.6819L86.7562 89.4838L85.8725 86.9724L85.3267 87.1644Z" fill="#2F2E41"/>
<path d="M91.1374 55.5322C93.0166 55.4594 90.6888 70.4333 90.6888 70.4333C90.6888 70.4333 91.3697 83.5799 91.2253 84.2698C91.081 84.9597 91.2071 86.8204 91.2071 86.8204C90.839 86.1504 87.0407 86.656 87.0407 86.656L86.524 73.3321L83.8858 62.6565L80.2283 69.8125L83.7338 80.7966C83.7338 80.7966 85.1535 82.1101 85.0025 82.6292C84.8516 83.1483 81.133 84.319 80.4497 84.3455C79.7664 84.3719 80.0749 83.5046 80.0418 82.6505C80.0087 81.7964 76.7932 73.8805 75.6622 71.1871C74.5312 68.4937 75.4105 64.6959 75.9878 61.9363C76.5651 59.1766 79.6024 53.9977 79.6024 53.9977C83.3725 49.7457 89.2583 55.6051 91.1374 55.5322Z" fill="#2F2E41"/>
<path d="M68.2363 43.4313C68.3392 43.6279 68.484 43.7996 68.6605 43.9342C68.8369 44.0689 69.0408 44.1632 69.2576 44.2105C69.4745 44.2579 69.6991 44.2571 69.9156 44.2083C70.1322 44.1594 70.3354 44.0637 70.5109 43.9278L75.0298 46.8759L75.016 44.0723L70.7269 41.7026C70.4791 41.4228 70.1373 41.2437 69.7662 41.1991C69.3952 41.1546 69.0207 41.2476 68.7137 41.4607C68.4067 41.6738 68.1885 41.9921 68.1005 42.3553C68.0125 42.7185 68.0608 43.1013 68.2363 43.4313V43.4313Z" fill="#A0616A"/>
<path d="M90.162 57.9328C85.5019 57.9329 82.9338 57.0001 81.5701 56.1672C79.9025 55.1488 79.6172 54.0749 79.6058 54.0295L79.6025 54.0166L79.7648 51.9742L79.8358 51.8153C80.1629 51.0832 80.2063 50.2556 79.9576 49.4933L79.9525 49.4776L79.9538 49.4613L81.0434 35.3302L84.8995 34.0672L86.0212 32.9401L91.0158 32.8677L91.7117 34.2784L95.6492 35.7607L93.7148 47.2745L92.7875 48.8728L93.1606 50.6139L93.158 50.6296L91.9415 57.8903L91.8745 57.8933C91.2745 57.9201 90.7037 57.9333 90.162 57.9328Z" fill="#3F3D56"/>
<path d="M78.1053 49.1168L76.2771 48.0329L76.1625 47.8675C75.9298 47.5326 75.6218 47.257 75.2632 47.0627C74.9046 46.8685 74.5055 46.761 74.0979 46.7489L74.0766 46.7482L71.5586 45.2679L72.6024 42.2106L76.5496 43.3766L79.3015 36.5395C79.4527 36.164 79.705 35.8377 80.0305 35.5971C80.356 35.3564 80.7418 35.2108 81.1452 35.1763C81.5485 35.1418 81.9535 35.2199 82.3151 35.4018C82.6767 35.5838 82.9807 35.8625 83.1934 36.2069C83.4112 36.5668 83.5242 36.9805 83.5195 37.4013V41.875L83.503 41.8972L78.1053 49.1168Z" fill="#3F3D56"/>
<path d="M90.3284 55.3033C90.3675 55.0848 90.454 54.8775 90.5818 54.6961C90.7097 54.5147 90.8758 54.3635 91.0684 54.2532C91.261 54.1429 91.4755 54.0762 91.6967 54.0577C91.9179 54.0392 92.1405 54.0695 92.3487 54.1464L95.7731 49.9769L96.6023 52.6552L93.2233 56.2039C93.071 56.5452 92.7988 56.8187 92.4583 56.9727C92.1178 57.1267 91.7326 57.1504 91.3758 57.0394C91.019 56.9284 90.7152 56.6903 90.5222 56.3703C90.3291 56.0504 90.2602 55.6707 90.3284 55.3033V55.3033Z" fill="#A0616A"/>
<path d="M95.4477 54.7764L93.1738 52.5024L94.6213 48.9757L96.7191 46.1115C94.4837 45.0233 92.8057 42.4454 91.5899 40.3114L91.5762 40.2875L91.8789 37.9163C91.9497 37.3617 92.1719 36.8373 92.5211 36.4007C92.8247 36.0209 93.2149 35.7194 93.6589 35.5213C94.1029 35.3232 94.588 35.2343 95.0734 35.262C95.5588 35.2898 96.0306 35.4333 96.4492 35.6807C96.8677 35.9281 97.221 36.2721 97.4794 36.684L101.556 45.7464L101.51 45.8149L98.2312 51.4045L97.3362 51.9849L95.4477 54.7764Z" fill="#3F3D56"/>
<path d="M92.1035 28.1144C91.9536 29.2071 91.376 30.1956 90.4976 30.8627C89.6193 31.5298 88.512 31.821 87.419 31.6723C86.3261 31.5235 85.3369 30.947 84.6688 30.0694C84.0006 29.1919 83.7082 28.0849 83.8558 26.9919L83.8638 26.9328C84.0363 25.8544 84.6257 24.887 85.5051 24.2392C86.3844 23.5915 87.4832 23.3154 88.5643 23.4704C89.6455 23.6254 90.6223 24.1992 91.2842 25.0679C91.9461 25.9367 92.2399 27.0308 92.1023 28.1142L92.1035 28.1144Z" fill="#A0616A"/>
<path d="M91.0446 30.2579C91.2583 29.8237 91.4779 29.3577 91.4178 28.8775C91.3577 28.3974 90.8868 27.9384 90.4244 28.0811C90.1479 28.1665 89.939 28.4395 89.6499 28.4535C89.2522 28.4727 89.0242 28.0176 88.9004 27.6392L88.3963 26.0981C87.9122 26.4753 87.3507 26.7411 86.7521 26.8764C86.1534 27.0116 85.5322 27.0131 84.9329 26.8806C84.4649 26.7736 83.992 26.565 83.7174 26.1711C83.4428 25.7772 83.4445 25.1663 83.8211 24.8684C84.0057 24.7224 84.2515 24.6669 84.428 24.511C84.5374 24.4144 84.6129 24.285 84.6431 24.1422C84.6734 23.9993 84.6568 23.8505 84.5959 23.7177C84.535 23.585 84.433 23.4754 84.3049 23.4052C84.1769 23.3349 84.0296 23.3077 83.8849 23.3277L85.1543 23.169L84.7761 22.4851C84.9199 22.5829 85.0825 22.6496 85.2535 22.681C85.4246 22.7124 85.6003 22.7077 85.7694 22.6673C86.1109 22.6058 86.4326 22.4652 86.7667 22.3714C87.5765 22.1646 88.4317 22.2278 89.2023 22.5514C89.973 22.875 90.6169 23.4412 91.0363 24.1642C91.3487 24.0599 91.6854 24.0529 92.0018 24.1443C92.3181 24.2356 92.5993 24.421 92.808 24.6757C93.1478 25.107 93.2402 25.6825 93.2534 26.2314C93.2781 27.3136 93.0421 28.3859 92.5653 29.3578C92.4286 29.6665 92.2322 29.9452 91.9873 30.1777C91.8641 30.293 91.7171 30.3799 91.5567 30.4324C91.3962 30.4848 91.2263 30.5015 91.0587 30.4814" fill="#2F2E41"/>
<path d="M23.6025 25.9759C23.6704 26.9452 23.956 27.8866 24.438 28.7303C25.4538 30.5142 27.1958 31.8057 29.0719 32.5734C31.4159 33.5325 34.0288 33.5621 36.5164 33.3482C38.8268 33.1496 41.1138 32.6891 43.4327 32.5942C45.2261 32.5369 47.0213 32.5797 48.8099 32.7225C52.28 32.9688 55.7356 33.4257 59.169 33.9797C60.0989 34.1279 61.0268 34.2871 61.9527 34.4573C62.0402 34.4651 62.1268 34.4812 62.2113 34.5054C62.2281 34.5123 62.2551 34.5069 62.2705 34.5166C62.2985 34.5342 62.1574 34.4719 62.2429 34.5426C62.362 34.6676 62.4683 34.8042 62.5599 34.9505L63.828 36.5823C64.1916 37.0502 64.5291 37.6187 64.9991 37.9875C65.3304 38.2435 65.7302 38.3957 66.148 38.4248C66.5657 38.4539 66.9827 38.3587 67.3464 38.1511C67.7263 37.9111 68.0293 37.5669 68.2193 37.1597C68.511 36.6247 68.8589 36.1225 69.2573 35.6615C70.7659 33.9017 72.8625 32.8193 74.6162 31.3386C75.4656 30.6508 76.1906 29.8221 76.7594 28.8888C77.2447 28.0443 77.5465 27.1069 77.645 26.1379C77.8549 24.17 77.251 22.1631 76.2353 20.489C75.1305 18.6904 73.5433 17.2377 71.6541 16.296C69.5317 15.2148 67.1833 14.6882 64.8292 14.4258C62.3298 14.1471 59.8013 14.148 57.2897 14.1761C54.471 14.2075 51.6574 14.3314 48.8489 14.548C46.0366 14.7656 43.2354 15.075 40.4452 15.4761C37.768 15.861 35.058 16.2622 32.4373 16.9432C30.1222 17.5449 27.8136 18.4853 26.0848 20.1892C24.5477 21.7042 23.4786 23.7774 23.6025 25.9759Z" fill="#0D6EFD"/>
<path d="M36.5436 26.6019C36.4292 26.5967 36.317 26.5679 36.2143 26.5173C36.1115 26.4667 36.0203 26.3954 35.9464 26.3078C35.8726 26.2202 35.8176 26.1183 35.7851 26.0084C35.7526 25.8986 35.7431 25.7832 35.7574 25.6695L35.8169 25.2012C35.8282 25.1114 35.8176 25.0202 35.7859 24.9354C35.7542 24.8506 35.7024 24.7747 35.6349 24.7144L35.2831 24.4001C35.1679 24.2972 35.0838 24.1641 35.0403 24.0159C34.9968 23.8677 34.9957 23.7103 35.037 23.5615C35.0783 23.4127 35.1604 23.2784 35.2741 23.1738C35.3878 23.0692 35.5284 22.9985 35.6802 22.9697L36.1439 22.8817C36.2328 22.8648 36.3163 22.8266 36.3871 22.7703C36.458 22.714 36.5141 22.6413 36.5506 22.5585L36.7409 22.1263C36.8033 21.985 36.9039 21.864 37.0314 21.7769C37.1589 21.6897 37.3083 21.64 37.4625 21.6333C37.6168 21.6267 37.7699 21.6633 37.9045 21.739C38.0391 21.8148 38.1498 21.9266 38.2241 22.062L38.451 22.4758C38.4945 22.5552 38.5568 22.6229 38.6323 22.6729C38.7078 22.723 38.7943 22.7539 38.8845 22.763L39.3539 22.8104C39.5076 22.826 39.6539 22.8842 39.7762 22.9785C39.8985 23.0729 39.9919 23.1995 40.046 23.3442C40.1 23.4889 40.1125 23.6458 40.0821 23.7972C40.0516 23.9487 39.9793 24.0885 39.8735 24.201L39.5501 24.5447C39.4881 24.6106 39.443 24.6906 39.4188 24.7778C39.3946 24.865 39.3919 24.9567 39.4111 25.0452L39.5109 25.5067C39.5435 25.6577 39.5333 25.8147 39.4814 25.9601C39.4294 26.1055 39.3379 26.2335 39.217 26.3296C39.0961 26.4257 38.9508 26.486 38.7974 26.5038C38.644 26.5217 38.4887 26.4962 38.349 26.4304L37.9221 26.2292C37.8402 26.1904 37.7501 26.1722 37.6597 26.1761C37.5692 26.18 37.481 26.2059 37.4028 26.2515L36.9949 26.4891C36.8583 26.569 36.7017 26.6081 36.5436 26.6019V26.6019Z" fill="white"/>
<path d="M43.1909 26.4089C42.9803 26.3992 42.7812 26.3103 42.6333 26.16C42.544 26.0654 42.4774 25.9517 42.4385 25.8276C42.3996 25.7034 42.3895 25.572 42.4089 25.4434L42.4635 25.0137C42.4751 24.9222 42.4643 24.8293 42.432 24.7429C42.3997 24.6565 42.3469 24.5793 42.2781 24.5178L41.9518 24.2263C41.8556 24.1441 41.7789 24.0416 41.7273 23.926C41.6757 23.8105 41.6505 23.6849 41.6536 23.5584C41.6607 23.3711 41.7313 23.1917 41.8537 23.0497C41.9761 22.9077 42.1432 22.8114 42.3275 22.7768L42.7858 22.6897C42.8764 22.6725 42.9615 22.6335 43.0337 22.5761C43.1059 22.5187 43.1631 22.4446 43.2003 22.3601L43.3711 21.9723C43.4321 21.8251 43.5326 21.6975 43.6615 21.6038C43.7904 21.51 43.9426 21.4536 44.1015 21.4408C44.2572 21.4319 44.4122 21.4675 44.5485 21.5433C44.6848 21.6191 44.7968 21.7321 44.8714 21.8691L45.0956 22.278C45.14 22.359 45.2035 22.4279 45.2804 22.4789C45.3574 22.5299 45.4456 22.5613 45.5375 22.5706L45.9726 22.6146C46.0988 22.6245 46.2212 22.6624 46.3309 22.7256C46.4406 22.7888 46.5348 22.8756 46.6067 22.9799C46.7109 23.1357 46.7592 23.3222 46.7435 23.509C46.7279 23.6958 46.6494 23.8717 46.5207 24.008L46.2012 24.3478C46.138 24.4149 46.0921 24.4964 46.0675 24.5852C46.0428 24.674 46.0401 24.7674 46.0595 24.8575L46.1516 25.2837C46.1812 25.4067 46.183 25.5347 46.157 25.6585C46.1311 25.7823 46.0779 25.8988 46.0015 25.9996C45.886 26.1476 45.7234 26.2519 45.5407 26.2951C45.3579 26.3384 45.1659 26.318 44.9962 26.2374L44.5737 26.0383C44.4904 25.9991 44.3987 25.9806 44.3067 25.9846C44.2146 25.9886 44.125 26.015 44.0453 26.0613L43.6421 26.2961C43.5056 26.376 43.349 26.4151 43.1909 26.4089V26.4089Z" fill="white"/>
<path d="M49.8561 26.3807C49.7417 26.3755 49.6295 26.3467 49.5268 26.2961C49.424 26.2455 49.3328 26.1742 49.2589 26.0866C49.1851 25.999 49.1301 25.8971 49.0976 25.7872C49.0651 25.6774 49.0556 25.562 49.0699 25.4483L49.1294 24.9801C49.1407 24.8902 49.1301 24.799 49.0984 24.7142C49.0667 24.6294 49.0149 24.5535 48.9474 24.4932L48.5956 24.1789C48.4804 24.076 48.3963 23.9429 48.3528 23.7947C48.3093 23.6465 48.3082 23.4891 48.3495 23.3403C48.3908 23.1915 48.4729 23.0572 48.5866 22.9526C48.7003 22.848 48.8409 22.7773 48.9927 22.7485L49.4564 22.6605C49.5453 22.6436 49.6288 22.6054 49.6996 22.5491C49.7705 22.4928 49.8266 22.4201 49.8631 22.3374L50.0534 21.9051C50.1158 21.7638 50.2164 21.6428 50.3439 21.5557C50.4714 21.4686 50.6207 21.4188 50.775 21.4122C50.9293 21.4055 51.0824 21.4421 51.217 21.5178C51.3516 21.5936 51.4623 21.7055 51.5366 21.8408L51.7635 22.2546C51.807 22.334 51.8692 22.4017 51.9448 22.4517C52.0203 22.5018 52.1068 22.5327 52.197 22.5418L52.6664 22.5892C52.8201 22.6048 52.9664 22.663 53.0887 22.7573C53.211 22.8517 53.3044 22.9784 53.3585 23.123C53.4125 23.2677 53.425 23.4246 53.3945 23.576C53.3641 23.7275 53.2918 23.8673 53.186 23.9798L52.8626 24.3235C52.8006 24.3894 52.7555 24.4694 52.7313 24.5566C52.707 24.6438 52.7044 24.7356 52.7236 24.824L52.8234 25.2856C52.856 25.4365 52.8458 25.5935 52.7939 25.7389C52.7419 25.8843 52.6504 26.0123 52.5295 26.1084C52.4086 26.2045 52.2632 26.2649 52.1099 26.2827C51.9565 26.3005 51.8012 26.275 51.6615 26.2092L51.2346 26.008C51.1527 25.9693 51.0626 25.951 50.9722 25.9549C50.8817 25.9588 50.7935 25.9847 50.7153 26.0303L50.3074 26.2679C50.1708 26.3478 50.0142 26.3869 49.8561 26.3807V26.3807Z" fill="white"/>
<path opacity="0.2" d="M56.3376 26.2049C56.2231 26.1997 56.111 26.171 56.0082 26.1203C55.9054 26.0697 55.8142 25.9984 55.7404 25.9108C55.6665 25.8232 55.6116 25.7213 55.5791 25.6115C55.5465 25.5016 55.5371 25.3862 55.5513 25.2725L55.6108 24.8043C55.6222 24.7145 55.6115 24.6232 55.5798 24.5384C55.5482 24.4536 55.4963 24.3778 55.4288 24.3174L55.0771 24.0031C54.9619 23.9002 54.8778 23.7671 54.8343 23.6189C54.7908 23.4707 54.7896 23.3133 54.8309 23.1645C54.8722 23.0157 54.9544 22.8814 55.068 22.7768C55.1817 22.6722 55.3224 22.6016 55.4741 22.5728L55.9379 22.4847C56.0268 22.4678 56.1102 22.4296 56.1811 22.3733C56.2519 22.317 56.308 22.2444 56.3445 22.1616L56.5349 21.7293C56.5972 21.5881 56.6978 21.467 56.8253 21.3799C56.9528 21.2928 57.1022 21.2431 57.2565 21.2364C57.4108 21.2297 57.5639 21.2663 57.6984 21.342C57.833 21.4178 57.9437 21.5297 58.018 21.665L58.245 22.0788C58.2885 22.1583 58.3507 22.2259 58.4262 22.276C58.5017 22.326 58.5883 22.3569 58.6784 22.366L59.1479 22.4135C59.3015 22.429 59.4478 22.4872 59.5701 22.5816C59.6924 22.6759 59.7859 22.8026 59.8399 22.9473C59.894 23.0919 59.9065 23.2489 59.876 23.4003C59.8455 23.5517 59.7732 23.6915 59.6674 23.804L59.3441 24.1478C59.282 24.2136 59.2369 24.2936 59.2127 24.3808C59.1885 24.468 59.1859 24.5598 59.2051 24.6482L59.3048 25.1098C59.3375 25.2607 59.3272 25.4177 59.2753 25.5631C59.2234 25.7086 59.1318 25.8365 59.0109 25.9326C58.89 26.0287 58.7447 26.0891 58.5913 26.1069C58.4379 26.1247 58.2826 26.0992 58.1429 26.0334L57.716 25.8322C57.6341 25.7935 57.5441 25.7752 57.4536 25.7791C57.3631 25.783 57.2749 25.8089 57.1967 25.8546L56.7888 26.0921C56.6522 26.172 56.4957 26.2111 56.3376 26.2049V26.2049Z" fill="black"/>
<path opacity="0.2" d="M62.82 26.029C62.7055 26.0238 62.5934 25.995 62.4906 25.9444C62.3878 25.8938 62.2967 25.8225 62.2228 25.7349C62.1489 25.6473 62.094 25.5454 62.0615 25.4355C62.0289 25.3257 62.0195 25.2103 62.0338 25.0966L62.0932 24.6284C62.1046 24.5385 62.094 24.4473 62.0623 24.3625C62.0306 24.2777 61.9787 24.2019 61.9113 24.1415L61.5595 23.8272C61.4443 23.7243 61.3602 23.5912 61.3167 23.443C61.2732 23.2948 61.272 23.1374 61.3134 22.9886C61.3547 22.8398 61.4368 22.7055 61.5505 22.6009C61.6641 22.4963 61.8048 22.4257 61.9565 22.3969L62.4203 22.3088C62.5092 22.2919 62.5926 22.2537 62.6635 22.1974C62.7343 22.1411 62.7904 22.0685 62.8269 21.9857L63.0173 21.5534C63.0796 21.4121 63.1802 21.2911 63.3077 21.204C63.4353 21.1169 63.5846 21.0672 63.7389 21.0605C63.8932 21.0538 64.0463 21.0904 64.1809 21.1661C64.3154 21.2419 64.4261 21.3538 64.5005 21.4891L64.7274 21.9029C64.7709 21.9824 64.8331 22.05 64.9086 22.1001C64.9841 22.1501 65.0707 22.181 65.1608 22.1901L65.6303 22.2376C65.7839 22.2531 65.9302 22.3113 66.0525 22.4057C66.1748 22.5 66.2683 22.6267 66.3223 22.7714C66.3764 22.916 66.3889 23.073 66.3584 23.2244C66.3279 23.3758 66.2557 23.5156 66.1498 23.6281L65.8265 23.9719C65.7644 24.0377 65.7193 24.1177 65.6951 24.2049C65.6709 24.2921 65.6683 24.3839 65.6875 24.4723L65.7872 24.9339C65.8199 25.0848 65.8097 25.2418 65.7577 25.3872C65.7058 25.5326 65.6142 25.6606 65.4933 25.7567C65.3724 25.8528 65.2271 25.9132 65.0737 25.931C64.9203 25.9488 64.765 25.9233 64.6253 25.8575L64.1984 25.6563C64.1166 25.6176 64.0265 25.5993 63.936 25.6032C63.8455 25.6071 63.7574 25.633 63.6792 25.6786L63.2712 25.9162C63.1347 25.9961 62.9781 26.0352 62.82 26.029Z" fill="black"/>
<path d="M104.118 81.3329L104.308 77.0693C106.285 76.0127 108.49 75.4546 110.731 75.4435C107.646 77.9655 108.032 82.827 105.94 86.2185C105.28 87.2713 104.391 88.162 103.339 88.8246C102.288 89.4871 101.101 89.9046 99.8661 90.046L97.2845 91.6266C96.9302 89.6519 97.0083 87.6239 97.5134 85.6823C98.0184 83.7407 98.9384 81.9317 100.21 80.3798C100.932 79.5163 101.76 78.7472 102.674 78.0905C103.292 79.7207 104.118 81.3329 104.118 81.3329Z" fill="#F2F2F2"/>
<path d="M118.918 92H49.7238C49.6714 92 49.6212 91.9792 49.5842 91.9422C49.5472 91.9051 49.5264 91.8549 49.5264 91.8026C49.5264 91.7503 49.5472 91.7 49.5842 91.663C49.6212 91.626 49.6714 91.6052 49.7238 91.6052H118.918C118.97 91.6052 119.021 91.626 119.058 91.663C119.095 91.7 119.116 91.7503 119.116 91.8026C119.116 91.8549 119.095 91.9051 119.058 91.9422C119.021 91.9792 118.97 92 118.918 92V92Z" fill="#CACACA"/>
</g>
<defs>
<clipPath id="clip0_1427_2077">
<rect width="119.116" height="92" fill="white"/>
</clipPath>
</defs>
</svg>
