<svg width="112" height="92" viewBox="0 0 112 92" fill="none" xmlns="http://www.w3.org/2000/svg">
<g clip-path="url(#clip0_1427_2120)">
<path d="M90.7276 9.24639C91.4399 6.33121 90.7626 2.93143 88.4613 1.01392C88.4163 4.27767 87.2223 7.42026 85.0904 9.88568C84.2648 10.8335 83.2482 11.8014 83.2082 13.0596C83.1833 13.8425 83.5642 14.5944 84.089 15.1742C84.6138 15.7541 85.2759 16.188 85.9301 16.6153L86.0262 16.7854C88.1322 14.6538 90.0153 12.1616 90.7276 9.24639V9.24639Z" fill="#F0F0F0"/>
<path d="M88.4152 1.05661C89.2978 3.37782 89.429 5.91906 88.7903 8.31938C88.6619 8.83856 88.4528 9.3342 88.1706 9.78804C87.8815 10.2212 87.4821 10.5688 87.0138 10.7947C86.5814 11.0141 86.1137 11.1884 85.742 11.5094C85.5542 11.6766 85.4037 11.8818 85.3004 12.1114C85.1971 12.341 85.1434 12.59 85.1427 12.8419C85.1247 13.4697 85.3326 14.0664 85.5562 14.6429C85.8043 15.283 86.0722 15.9439 86.0149 16.6447C86.0079 16.7296 86.1396 16.7355 86.1466 16.6507C86.2464 15.4314 85.4211 14.4015 85.2902 13.2189C85.2291 12.6671 85.3334 12.0934 85.74 11.6911C86.0956 11.3392 86.5777 11.1592 87.0174 10.9408C87.4775 10.7271 87.8784 10.4037 88.1851 9.99876C88.4894 9.5608 88.7172 9.07407 88.8587 8.55942C89.1958 7.40588 89.3501 6.20632 89.3158 5.0047C89.2843 3.63308 89.0192 2.27699 88.5319 0.995079C88.5017 0.915749 88.3852 0.9778 88.4152 1.05661V1.05661Z" fill="white"/>
<path d="M89.0414 7.55855C89.4573 7.61141 89.8784 7.51421 90.2295 7.2843C90.5806 7.0544 90.8388 6.70676 90.958 6.30347C90.9818 6.22179 90.8564 6.18078 90.8326 6.26257C90.7222 6.63832 90.4817 6.96212 90.1544 7.17554C89.827 7.38896 89.4344 7.47793 89.0474 7.4264C88.9633 7.4153 88.9578 7.54752 89.0414 7.55855V7.55855Z" fill="white"/>
<path d="M87.2474 10.7123C86.7163 10.0374 86.4582 9.18649 86.5247 8.32918C86.5313 8.24425 86.3996 8.23837 86.393 8.32319C86.3255 9.21546 86.5958 10.1004 87.15 10.8015C87.2029 10.8683 87.2999 10.7787 87.2474 10.7123V10.7123Z" fill="white"/>
<path d="M89.1263 3.70634C88.9611 3.71954 88.7953 3.69136 88.6436 3.62434C88.492 3.55733 88.3594 3.45357 88.2576 3.32239C88.2056 3.25496 88.1086 3.34462 88.1602 3.41161C88.2733 3.55601 88.42 3.67042 88.5874 3.74484C88.7547 3.81925 88.9377 3.85141 89.1203 3.8385C89.1376 3.83873 89.1544 3.83233 89.1672 3.82061C89.18 3.8089 89.1878 3.79273 89.1892 3.77541C89.1899 3.75791 89.1837 3.74084 89.1719 3.7279C89.1601 3.71497 89.1437 3.70722 89.1263 3.70634V3.70634Z" fill="white"/>
<path d="M78.5098 2.90112C78.541 2.94415 78.5723 2.98718 78.6032 3.03127C79.0207 3.61195 79.3905 4.22569 79.7089 4.86646C79.7343 4.91561 79.7593 4.9658 79.7833 5.01558C80.534 6.56752 80.9911 8.24584 81.1312 9.96521C81.1864 10.6494 81.1896 11.3369 81.1408 12.0216C81.0733 12.9672 80.9252 13.9871 81.1659 14.8738C81.19 14.9665 81.2198 15.0577 81.2551 15.1468L85.8122 16.8898C85.8246 16.8885 85.8366 16.8883 85.849 16.8871L86.0278 16.9651C86.0327 16.9299 86.0371 16.8934 86.0421 16.8582C86.0451 16.8379 86.047 16.8171 86.05 16.7967C86.0517 16.783 86.0533 16.7693 86.0555 16.757C86.0561 16.7525 86.0566 16.7479 86.0568 16.7444C86.0591 16.7321 86.0599 16.7205 86.0618 16.7092C86.087 16.505 86.1108 16.3002 86.1332 16.0949C86.1336 16.0939 86.1336 16.0939 86.133 16.0924C86.3188 14.5297 86.3191 12.9504 86.1341 11.3875C86.1279 11.341 86.1222 11.2934 86.114 11.246C86.0182 10.5489 85.8658 9.86086 85.6583 9.18867C85.5435 8.82096 85.4102 8.45933 85.259 8.10515C84.8664 7.19076 84.333 6.34402 83.6782 5.59597C82.3726 4.10492 80.6064 3.04943 78.6587 2.91028C78.6089 2.90677 78.56 2.9036 78.5098 2.90112V2.90112Z" fill="#F0F0F0"/>
<path d="M78.4979 2.96312C80.5953 4.28328 82.2249 6.23303 83.1552 8.53542C83.3642 9.02751 83.4946 9.54958 83.5417 10.0824C83.5707 10.603 83.4604 11.1218 83.222 11.5851C83.0084 12.0215 82.7396 12.4431 82.6354 12.924C82.5858 13.171 82.5887 13.4257 82.644 13.6714C82.6993 13.9172 82.8058 14.1484 82.9564 14.35C83.3188 14.8621 83.8428 15.213 84.3672 15.5382C84.9494 15.8994 85.5599 16.2652 85.9346 16.8594C85.98 16.9314 86.0887 16.8565 86.0433 16.7847C85.3914 15.7508 84.1145 15.4271 83.3004 14.5619C82.9205 14.1582 82.6596 13.6371 82.7428 13.0702C82.8156 12.5745 83.0925 12.1395 83.3126 11.6995C83.5517 11.251 83.6777 10.7506 83.6797 10.2419C83.6598 9.70839 83.5497 9.18215 83.3539 8.68571C82.9309 7.56103 82.3343 6.51007 81.5859 5.57134C80.7377 4.49523 79.7124 3.57263 78.5541 2.84347C78.4824 2.79837 78.4266 2.91831 78.4979 2.96313V2.96312Z" fill="white"/>
<path d="M82.8998 7.77639C83.2636 7.56735 83.5415 7.23535 83.6839 6.83969C83.8262 6.44404 83.8238 6.01049 83.677 5.61647C83.647 5.53685 83.5223 5.57985 83.5523 5.65958C83.6897 6.02623 83.6919 6.43009 83.5586 6.79825C83.4253 7.16641 83.1652 7.47463 82.8253 7.66727C82.7515 7.70923 82.8264 7.81811 82.8998 7.77639Z" fill="white"/>
<path d="M83.36 11.378C82.5311 11.16 81.8145 10.6365 81.3531 9.91183C81.3074 9.84 81.1987 9.91487 81.2443 9.98661C81.7259 10.7398 82.4727 11.2831 83.3358 11.5081C83.4181 11.5295 83.4419 11.3993 83.36 11.378V11.378Z" fill="white"/>
<path d="M80.6549 4.64963C80.531 4.75995 80.3817 4.83765 80.2204 4.87575C80.0591 4.91385 79.8909 4.91115 79.7309 4.86791C79.649 4.84548 79.6253 4.97567 79.7067 4.99795C79.8837 5.0449 80.0695 5.04765 80.2477 5.00595C80.426 4.96426 80.5914 4.87939 80.7295 4.75876C80.7434 4.74848 80.753 4.73326 80.7562 4.71618C80.7593 4.6991 80.7559 4.68144 80.7466 4.66681C80.7366 4.65241 80.7214 4.64253 80.7043 4.63931C80.6871 4.6361 80.6694 4.63981 80.6549 4.64964V4.64963Z" fill="white"/>
<path d="M72.4842 68.7511C57.2061 68.7511 44.7764 56.2791 44.7764 40.9488C44.7764 25.6186 57.2061 13.1465 72.4842 13.1465C74.0995 13.1463 75.7117 13.2865 77.3028 13.5654C77.3226 13.5689 77.3416 13.5762 77.3586 13.587C77.3756 13.5978 77.3904 13.6119 77.4019 13.6284C77.4135 13.6449 77.4217 13.6636 77.4261 13.6833C77.4305 13.703 77.431 13.7234 77.4275 13.7433C77.4241 13.7632 77.4167 13.7822 77.4059 13.7993C77.3951 13.8163 77.381 13.831 77.3645 13.8426C77.348 13.8542 77.3294 13.8624 77.3098 13.8668C77.2901 13.8711 77.2698 13.8715 77.25 13.868C75.6763 13.5921 74.0817 13.4535 72.4842 13.4537C57.3749 13.4537 45.0825 25.7879 45.0825 40.9488C45.0825 56.1097 57.3749 68.4439 72.4842 68.4439C87.5936 68.4439 99.8859 56.1097 99.8859 40.9488C99.8927 34.0962 97.3426 27.4894 92.7378 22.429C92.7107 22.3988 92.6966 22.3591 92.6985 22.3186C92.7005 22.278 92.7184 22.2399 92.7483 22.2126C92.7782 22.1852 92.8177 22.1709 92.8581 22.1726C92.8985 22.1744 92.9366 22.1921 92.964 22.2219C97.6203 27.3389 100.199 34.0197 100.192 40.9488C100.192 56.2791 87.7624 68.7511 72.4842 68.7511V68.7511Z" fill="#E4E4E4"/>
<path d="M84.7017 22.6816C87.7294 22.6816 90.1838 20.2189 90.1838 17.1809C90.1838 14.1429 87.7294 11.6802 84.7017 11.6802C81.6741 11.6802 79.2197 14.1429 79.2197 17.1809C79.2197 20.2189 81.6741 22.6816 84.7017 22.6816Z" fill="#FFC107"/>
<path d="M83.953 20.0438C83.8583 20.0438 83.7649 20.0217 83.6803 19.9792C83.5956 19.9367 83.522 19.875 83.4652 19.799L81.9696 17.7981C81.9216 17.7338 81.8866 17.6607 81.8667 17.5828C81.8469 17.505 81.8425 17.424 81.8538 17.3444C81.8651 17.2649 81.8919 17.1884 81.9327 17.1192C81.9736 17.0501 82.0275 16.9897 82.0916 16.9415C82.1557 16.8933 82.2286 16.8582 82.3061 16.8383C82.3837 16.8183 82.4644 16.8139 82.5437 16.8253C82.623 16.8366 82.6992 16.8636 82.7681 16.9045C82.837 16.9454 82.8972 16.9996 82.9453 17.0639L83.9237 18.3728L86.4368 14.5905C86.5268 14.456 86.6662 14.3628 86.8245 14.3313C86.9828 14.2998 87.1471 14.3325 87.2814 14.4224C87.4157 14.5122 87.509 14.6518 87.5409 14.8105C87.5728 14.9693 87.5407 15.1343 87.4516 15.2693L84.4604 19.7713C84.4063 19.8528 84.3335 19.92 84.2482 19.9674C84.1629 20.0147 84.0674 20.0409 83.9699 20.0436C83.9643 20.0437 83.9586 20.0438 83.953 20.0438Z" fill="white"/>
<path d="M71.7721 36.6343L63.3184 13.036L63.5328 12.9586L61.978 8.61827L61.7636 8.69567L59.168 1.45026C59.071 1.17965 58.9219 0.93085 58.7292 0.718063C58.5364 0.505276 58.3038 0.33267 58.0445 0.2101C57.7853 0.0875305 57.5045 0.0173963 57.2182 0.00370437C56.932 -0.00998758 56.6459 0.0330302 56.3762 0.130301L41.0936 5.64242C40.8239 5.73968 40.5759 5.88929 40.3639 6.08271C40.1518 6.27613 39.9798 6.50956 39.8576 6.76969C39.7354 7.02982 39.6655 7.31154 39.6519 7.59878C39.6382 7.88601 39.6811 8.17313 39.778 8.44374L41.5878 13.4957L41.2491 13.6266L42.4044 16.6368L42.6755 16.532L42.9154 17.2015L42.6268 17.3131L43.7821 20.3233L44.0031 20.2379L52.3822 43.6278C52.4787 43.8987 52.6275 44.1479 52.8202 44.3609C53.0129 44.574 53.2456 44.7468 53.505 44.8695C53.7644 44.9921 54.0453 45.0622 54.3317 45.0756C54.6182 45.0891 54.9044 45.0456 55.1741 44.9478L70.4566 39.4357C71.0008 39.2387 71.445 38.8331 71.6916 38.3079C71.9382 37.7827 71.9672 37.1808 71.7721 36.6343V36.6343Z" fill="#3F3D56"/>
<path d="M54.3701 44.1699C54.1549 44.1695 53.945 44.1025 53.7691 43.9782C53.5931 43.8538 53.4596 43.6781 53.3866 43.475L40.6495 7.91963C40.5557 7.65775 40.5694 7.36922 40.6877 7.1175C40.8059 6.86577 41.0189 6.67147 41.2798 6.57732L44.5315 5.40451L44.5266 5.51867C44.5183 5.71683 44.5586 5.91401 44.6441 6.09283C44.7296 6.27166 44.8576 6.42664 45.0169 6.54413C45.1761 6.66162 45.3617 6.73801 45.5573 6.76657C45.7529 6.79513 45.9525 6.77498 46.1386 6.7079L53.3549 4.10511C53.5291 4.02503 53.6821 3.90493 53.8014 3.75453C53.9208 3.60412 54.0032 3.42764 54.0419 3.23936C54.0803 3.05422 54.0745 2.8626 54.025 2.68015C53.9755 2.49769 53.8837 2.32956 53.7571 2.18948L53.6809 2.1045L57.0397 0.892999C57.3007 0.799256 57.5881 0.813203 57.8389 0.931784C58.0897 1.05036 58.2834 1.2639 58.3775 1.52556L70.5299 35.4483C70.7779 36.1433 70.741 36.9085 70.4275 37.5763C70.1139 38.244 69.5492 38.7596 68.8572 39.0101L54.7245 44.1075C54.6108 44.1487 54.4909 44.1698 54.3701 44.1699V44.1699Z" fill="white"/>
<path d="M53.1254 18.9512C55.4081 18.9512 57.2586 17.0944 57.2586 14.8039C57.2586 12.5134 55.4081 10.6566 53.1254 10.6566C50.8427 10.6566 48.9922 12.5134 48.9922 14.8039C48.9922 17.0944 50.8427 18.9512 53.1254 18.9512Z" fill="#FFC107"/>
<path d="M63.3665 20.8351L49.053 25.9977C49.0083 26.0139 48.9608 26.0212 48.9133 26.019C48.8658 26.0168 48.8192 26.0052 48.7762 25.9849C48.7331 25.9646 48.6945 25.936 48.6625 25.9007C48.6305 25.8655 48.6058 25.8242 48.5897 25.7793C48.5736 25.7344 48.5665 25.6868 48.5688 25.6391C48.5711 25.5915 48.5827 25.5447 48.603 25.5016C48.6233 25.4584 48.6519 25.4198 48.6872 25.3877C48.7224 25.3557 48.7636 25.331 48.8084 25.3149L63.1219 20.1523C63.2121 20.12 63.3113 20.125 63.3978 20.166C63.4844 20.2071 63.5512 20.2809 63.5835 20.3713C63.6159 20.4617 63.6113 20.5613 63.5706 20.6482C63.5299 20.7351 63.4565 20.8023 63.3665 20.8351V20.8351Z" fill="#E6E6E6"/>
<path d="M59.1165 24.1085L54.4083 25.8066C54.3636 25.8228 54.3162 25.8301 54.2687 25.8279C54.2212 25.8257 54.1746 25.8141 54.1316 25.7938C54.0886 25.7735 54.05 25.7449 54.018 25.7096C53.986 25.6743 53.9612 25.6331 53.9451 25.5882C53.9291 25.5433 53.922 25.4957 53.9242 25.448C53.9265 25.4004 53.9382 25.3536 53.9585 25.3105C53.9788 25.2674 54.0074 25.2287 54.0426 25.1967C54.0778 25.1646 54.119 25.1399 54.1637 25.1238L58.8719 23.4257C58.9621 23.3931 59.0615 23.3979 59.1483 23.4389C59.235 23.4799 59.302 23.5538 59.3344 23.6444C59.3668 23.7349 59.3621 23.8347 59.3212 23.9217C59.2804 24.0088 59.2067 24.0759 59.1165 24.1085V24.1085Z" fill="#E6E6E6"/>
<path d="M60.2359 27.2343L55.5278 28.9325C55.4831 28.9486 55.4357 28.9557 55.3883 28.9535C55.3409 28.9512 55.2943 28.9396 55.2514 28.9193C55.2084 28.8989 55.1699 28.8704 55.138 28.8351C55.106 28.7998 55.0813 28.7586 55.0653 28.7138C55.0492 28.669 55.0421 28.6214 55.0444 28.5738C55.0466 28.5262 55.0582 28.4795 55.0784 28.4364C55.0987 28.3933 55.1272 28.3547 55.1623 28.3226C55.1974 28.2906 55.2385 28.2658 55.2832 28.2497L59.9913 26.5515C60.0815 26.519 60.181 26.5237 60.2677 26.5648C60.3545 26.6058 60.4214 26.6797 60.4538 26.7702C60.4863 26.8608 60.4815 26.9605 60.4407 27.0476C60.3998 27.1346 60.3261 27.2018 60.2359 27.2343V27.2343Z" fill="#E6E6E6"/>
<path d="M60.809 28.8355L56.1009 30.5337C56.0562 30.5499 56.0087 30.5572 55.9612 30.555C55.9137 30.5528 55.8671 30.5413 55.8241 30.521C55.781 30.5007 55.7424 30.4721 55.7104 30.4368C55.6784 30.4015 55.6536 30.3602 55.6375 30.3153C55.6214 30.2704 55.6143 30.2228 55.6166 30.1751C55.6189 30.1274 55.6306 30.0807 55.6509 30.0376C55.6712 29.9944 55.6998 29.9557 55.7351 29.9237C55.7703 29.8917 55.8115 29.8669 55.8563 29.8509L60.5644 28.1528C60.6092 28.1365 60.6566 28.1293 60.7041 28.1315C60.7516 28.1337 60.7982 28.1452 60.8413 28.1655C60.8843 28.1858 60.9229 28.2144 60.9549 28.2497C60.9869 28.285 61.0117 28.3263 61.0277 28.3712C61.0438 28.4161 61.0509 28.4637 61.0486 28.5114C61.0463 28.559 61.0347 28.6057 61.0144 28.6489C60.9941 28.692 60.9655 28.7307 60.9302 28.7627C60.895 28.7948 60.8538 28.8195 60.809 28.8355L60.809 28.8355Z" fill="#E6E6E6"/>
<path d="M62.3086 24.6971L52.3196 28.3C52.2749 28.3162 52.2274 28.3235 52.1799 28.3213C52.1324 28.3191 52.0858 28.3075 52.0428 28.2872C51.9997 28.2669 51.9611 28.2383 51.9291 28.203C51.8971 28.1678 51.8724 28.1265 51.8563 28.0816C51.8402 28.0367 51.8331 27.9891 51.8354 27.9414C51.8377 27.8937 51.8493 27.847 51.8696 27.8039C51.8899 27.7607 51.9185 27.722 51.9538 27.69C51.989 27.658 52.0302 27.6332 52.075 27.6172L62.064 24.0143C62.1087 23.9981 62.1562 23.9909 62.2037 23.9931C62.2512 23.9952 62.2978 24.0068 62.3408 24.0271C62.3839 24.0474 62.4225 24.076 62.4545 24.1113C62.4865 24.1466 62.5112 24.1878 62.5273 24.2327C62.5434 24.2776 62.5505 24.3253 62.5482 24.3729C62.5459 24.4206 62.5343 24.4673 62.514 24.5104C62.4937 24.5536 62.4651 24.5923 62.4298 24.6243C62.3946 24.6563 62.3534 24.6811 62.3086 24.6971V24.6971Z" fill="#E6E6E6"/>
<path d="M60.2965 32.7222L58.587 33.3387C58.4336 33.394 58.2646 33.3858 58.1172 33.316C57.9698 33.2463 57.856 33.1206 57.8009 32.9667C57.7458 32.8129 57.7538 32.6433 57.8232 32.4953C57.8926 32.3474 58.0177 32.2331 58.1711 32.1777L59.8806 31.5611C60.034 31.5059 60.203 31.5141 60.3504 31.5838C60.4978 31.6536 60.6116 31.7792 60.6667 31.9331C60.7218 32.087 60.7138 32.2566 60.6444 32.4045C60.575 32.5525 60.4498 32.6667 60.2965 32.7222V32.7222Z" fill="#FFC107"/>
<path d="M46.8256 5.51957C46.9569 5.51957 47.0634 5.41277 47.0634 5.28103C47.0634 5.14928 46.9569 5.04248 46.8256 5.04248C46.6943 5.04248 46.5879 5.14928 46.5879 5.28103C46.5879 5.41277 46.6943 5.51957 46.8256 5.51957Z" fill="white"/>
<path d="M19.4839 18.6973C22.1484 15.5502 26.4717 13.5668 30.4574 14.5951C26.8676 17.2767 24.3388 21.146 23.3185 25.5184C22.9311 27.2061 22.6753 29.1236 21.3097 30.1828C20.46 30.8419 19.3175 31.022 18.2503 30.9024C17.1829 30.7828 16.1671 30.392 15.1649 30.0047L14.8984 30.0343C15.5687 25.96 16.8194 21.8444 19.4839 18.6973V18.6973Z" fill="#F0F0F0"/>
<path d="M30.4474 14.6811C27.1569 15.5653 24.2278 17.4673 22.076 20.117C21.6026 20.6791 21.2206 21.3126 20.9439 21.9942C20.6957 22.6668 20.6315 23.3939 20.7581 24.0998C20.8629 24.7604 21.0464 25.424 20.9894 26.0986C20.9551 26.4435 20.8485 26.7773 20.6766 27.0779C20.5048 27.3786 20.2715 27.6395 19.9921 27.8433C19.3092 28.3695 18.4786 28.6181 17.6579 28.8328C16.7466 29.0713 15.7964 29.3044 15.064 29.9336C14.9753 30.0099 14.8626 29.8672 14.9512 29.7911C16.2254 28.6965 18.035 28.7893 19.4544 27.9822C20.1168 27.6057 20.67 27.0265 20.7892 26.2473C20.8934 25.5659 20.7048 24.8815 20.5929 24.2135C20.4594 23.5267 20.4955 22.8175 20.6981 22.1479C20.9393 21.4544 21.2964 20.8072 21.7541 20.2339C22.7639 18.9268 23.9723 17.7872 25.3349 16.8567C26.8842 15.7862 28.6046 14.9894 30.4216 14.501C30.5341 14.4708 30.5591 14.6511 30.4474 14.6811H30.4474Z" fill="white"/>
<path d="M22.7194 19.2229C22.3254 18.8003 22.0939 18.2509 22.0663 17.6729C22.0387 17.0948 22.2167 16.5257 22.5687 16.0672C22.6402 15.9747 22.7869 16.0819 22.7152 16.1745C22.3867 16.6009 22.2209 17.131 22.2477 17.6692C22.2745 18.2075 22.4922 18.7184 22.8614 19.1097C22.9416 19.1948 22.7991 19.3076 22.7194 19.2229H22.7194Z" fill="white"/>
<path d="M20.6609 23.7719C21.8389 23.8218 22.9923 23.4244 23.8912 22.6589C23.9802 22.583 24.0929 22.7256 24.004 22.8014C23.0671 23.5963 21.866 24.0074 20.6403 23.9527C20.5234 23.9474 20.5447 23.7666 20.6609 23.7719V23.7719Z" fill="white"/>
<path d="M26.931 16.023C27.0495 16.2184 27.2146 16.3812 27.4113 16.4968C27.608 16.6123 27.8302 16.6771 28.058 16.6852C28.1749 16.689 28.1535 16.8698 28.0374 16.866C27.7857 16.8559 27.5404 16.7841 27.3228 16.6569C27.1052 16.5296 26.9219 16.3509 26.789 16.1362C26.7748 16.117 26.7684 16.0931 26.7711 16.0694C26.7738 16.0456 26.7854 16.0238 26.8036 16.0083C26.8225 15.9934 26.8465 15.9866 26.8703 15.9894C26.8942 15.9921 26.916 16.0042 26.931 16.023V16.023Z" fill="white"/>
<path d="M36.3845 27.2487C36.3115 27.2484 36.2385 27.2481 36.1646 27.2491C35.1829 27.2502 34.2029 27.3314 33.2343 27.4919C33.1592 27.5031 33.0832 27.5156 33.0086 27.5289C30.6791 27.9403 28.446 28.7822 26.4228 30.0116C25.6182 30.5015 24.8518 31.0522 24.1304 31.6588C23.1342 32.4967 22.1205 33.4846 20.9414 33.9302C20.8189 33.978 20.6935 34.0182 20.5661 34.0506L14.9556 30.3582C14.947 30.3434 14.9376 30.3298 14.929 30.315L14.6982 30.1778C14.7333 30.1439 14.7703 30.1095 14.8054 30.0756C14.8256 30.0559 14.8471 30.037 14.8673 30.0172C14.8812 30.0043 14.8952 29.9914 14.907 29.979C14.9116 29.9747 14.9162 29.9704 14.92 29.9674C14.9318 29.9549 14.9441 29.9447 14.955 29.9335C15.1616 29.7406 15.3699 29.5489 15.5799 29.3583C15.5808 29.357 15.5808 29.357 15.5829 29.3566C17.1868 27.9084 18.9253 26.5818 20.8092 25.5622C20.8659 25.5315 20.9233 25.4995 20.9826 25.4706C21.8343 25.0157 22.7216 24.6314 23.6357 24.3216C24.1368 24.1536 24.646 24.0111 25.1615 23.8947C26.4938 23.5966 27.8647 23.5107 29.2237 23.64C31.9328 23.8983 34.5294 25.023 36.2543 27.0895C36.2984 27.1424 36.3413 27.1945 36.3845 27.2487V27.2487Z" fill="#F0F0F0"/>
<path d="M36.3251 27.3119C33.1673 26.03 29.6873 25.779 26.3794 26.5947C25.6641 26.7576 24.9789 27.0326 24.3491 27.4096C23.7473 27.7968 23.2598 28.3385 22.9373 28.9787C22.6246 29.5694 22.373 30.2101 21.9226 30.7143C21.6883 30.969 21.4029 31.171 21.0853 31.3073C20.7677 31.4435 20.4249 31.5109 20.0795 31.5049C19.2185 31.5124 18.4062 31.2091 17.622 30.8848C16.7514 30.5247 15.8527 30.1368 14.8905 30.1967C14.7739 30.204 14.7695 30.022 14.8859 30.0148C16.5601 29.9105 17.9492 31.0778 19.5668 31.291C20.3216 31.3904 21.1109 31.2622 21.6736 30.712C22.1657 30.2309 22.4257 29.5705 22.7372 28.9696C23.0427 28.3405 23.4971 27.7961 24.0606 27.3838C24.6693 26.9759 25.3428 26.6748 26.0522 26.4936C27.6427 26.06 29.2914 25.8801 30.9376 25.9604C32.817 26.0415 34.6687 26.4447 36.4126 27.1524C36.5205 27.1963 36.4323 27.3554 36.3251 27.3119L36.3251 27.3119Z" fill="white"/>
<path d="M27.4297 26.2692C27.3686 25.6937 27.5134 25.1152 27.8382 24.637C28.1631 24.1588 28.6467 23.812 29.2028 23.6585C29.3154 23.6278 29.3682 23.802 29.2554 23.8327C28.7373 23.9747 28.2868 24.2978 27.9853 24.7437C27.6837 25.1897 27.551 25.7291 27.611 26.2646C27.6239 26.381 27.4425 26.3849 27.4297 26.2692V26.2692Z" fill="white"/>
<path d="M23.0565 28.6582C23.967 29.4097 25.1264 29.7892 26.3035 29.721C26.4201 29.7142 26.4246 29.8961 26.3081 29.903C25.0831 29.9716 23.8773 29.5742 22.9315 28.7901C22.8414 28.7153 22.9669 28.5838 23.0565 28.6582H23.0565Z" fill="white"/>
<path d="M32.712 26.2587C32.6894 26.4863 32.7235 26.716 32.8112 26.9271C32.8989 27.1383 33.0375 27.3242 33.2145 27.4683C33.3055 27.5419 33.1799 27.6734 33.0895 27.6002C32.8947 27.4401 32.7419 27.2346 32.6445 27.0015C32.547 26.7685 32.508 26.515 32.5307 26.2633C32.5309 26.2394 32.5401 26.2165 32.5565 26.1992C32.5729 26.1818 32.5953 26.1714 32.6191 26.1701C32.6431 26.1696 32.6663 26.1786 32.6837 26.1952C32.7011 26.2118 32.7113 26.2346 32.712 26.2587V26.2587Z" fill="white"/>
<path d="M99.4499 79.185C102.355 79.8998 105.743 79.2202 107.654 76.911C104.402 76.8659 101.27 75.6678 98.8128 73.5286C97.8682 72.7002 96.9035 71.6801 95.6496 71.64C94.8694 71.6149 94.12 71.9971 93.5422 72.5237C92.9643 73.0504 92.5319 73.7147 92.1061 74.3712L91.9365 74.4676C94.0608 76.5808 96.5446 78.4703 99.4499 79.185V79.185Z" fill="#F0F0F0"/>
<path d="M107.611 76.8647C105.298 77.7503 102.765 77.882 100.373 77.2411C99.8559 77.1123 99.362 76.9024 98.9097 76.6193C98.4779 76.3292 98.1315 75.9284 97.9064 75.4585C97.6877 75.0246 97.5141 74.5554 97.1941 74.1824C97.0275 73.9939 96.823 73.8429 96.5942 73.7393C96.3653 73.6356 96.1172 73.5817 95.8661 73.581C95.2405 73.563 94.6458 73.7716 94.0712 73.9959C93.4333 74.245 92.7747 74.5138 92.0762 74.4562C91.9916 74.4492 91.9858 74.5814 92.0703 74.5883C93.2854 74.6885 94.3118 73.8604 95.4904 73.7291C96.0404 73.6678 96.6121 73.7724 97.0131 74.1804C97.3637 74.5372 97.5432 75.0209 97.7608 75.4622C97.9737 75.9238 98.2961 76.326 98.6996 76.6338C99.1361 76.9392 99.6212 77.1678 100.134 77.3098C101.284 77.648 102.479 77.8028 103.677 77.7684C105.044 77.7368 106.395 77.4708 107.673 76.9818C107.752 76.9515 107.69 76.8346 107.611 76.8647H107.611Z" fill="white"/>
<path d="M101.131 77.4928C101.079 77.9101 101.175 78.3327 101.405 78.6849C101.634 79.0372 101.98 79.2963 102.382 79.4159C102.463 79.4398 102.504 79.314 102.423 79.29C102.048 79.1793 101.726 78.938 101.513 78.6095C101.3 78.281 101.212 77.8871 101.263 77.4988C101.274 77.4144 101.142 77.4089 101.131 77.4928V77.4928Z" fill="white"/>
<path d="M97.9884 75.6932C98.661 75.1603 99.509 74.9014 100.363 74.968C100.448 74.9747 100.454 74.8425 100.369 74.8359C99.4801 74.7682 98.5982 75.0394 97.8995 75.5955C97.8329 75.6485 97.9222 75.7459 97.9884 75.6932H97.9884Z" fill="white"/>
<path d="M104.97 77.5774C104.957 77.4117 104.985 77.2453 105.052 77.0931C105.119 76.941 105.222 76.8078 105.353 76.7057C105.42 76.6535 105.331 76.5562 105.264 76.608C105.12 76.7215 105.006 76.8687 104.932 77.0366C104.858 77.2046 104.826 77.3882 104.839 77.5714C104.838 77.5888 104.845 77.6056 104.857 77.6184C104.868 77.6313 104.884 77.6391 104.902 77.6405C104.919 77.6412 104.936 77.635 104.949 77.6232C104.962 77.6113 104.97 77.5949 104.97 77.5774V77.5774Z" fill="white"/>
<path d="M105.773 66.9252C105.73 66.9566 105.687 66.9879 105.643 67.019C105.065 67.4379 104.453 67.8089 103.814 68.1284C103.765 68.1539 103.715 68.179 103.666 68.203C102.119 68.9563 100.446 69.4149 98.7329 69.5556C98.051 69.6109 97.3659 69.6141 96.6835 69.5651C95.7411 69.4974 94.7247 69.3488 93.841 69.5904C93.7485 69.6145 93.6577 69.6444 93.5689 69.6799L91.8318 74.2525C91.8331 74.2649 91.8333 74.2769 91.8345 74.2894L91.7568 74.4687C91.7919 74.4737 91.8283 74.4782 91.8633 74.4832C91.8836 74.4861 91.9043 74.4881 91.9246 74.4911C91.9382 74.4927 91.9519 74.4944 91.9642 74.4966C91.9687 74.4972 91.9733 74.4977 91.9768 74.4979C91.989 74.5002 92.0006 74.501 92.0118 74.5029C92.2153 74.5282 92.4194 74.5521 92.624 74.5746C92.6251 74.575 92.6251 74.575 92.6265 74.5744C94.1839 74.7608 95.7579 74.7611 97.3154 74.5754C97.3618 74.5693 97.4092 74.5636 97.4564 74.5553C98.1512 74.4592 98.8369 74.3062 99.5068 74.098C99.8732 73.9828 100.234 73.8491 100.587 73.6973C101.498 73.3035 102.342 72.7682 103.087 72.1112C104.573 70.8012 105.625 69.0289 105.764 67.0746C105.767 67.0246 105.771 66.9756 105.773 66.9252V66.9252Z" fill="#F0F0F0"/>
<path d="M105.711 66.9134C104.396 69.018 102.452 70.6531 100.158 71.5866C99.6675 71.7963 99.1472 71.9272 98.6161 71.9744C98.0974 72.0035 97.5803 71.8928 97.1186 71.6536C96.6837 71.4393 96.2635 71.1695 95.7842 71.0651C95.5381 71.0152 95.2842 71.0182 95.0393 71.0737C94.7944 71.1292 94.5639 71.236 94.363 71.3872C93.8527 71.7507 93.503 72.2766 93.1789 72.8027C92.819 73.3869 92.4543 73.9995 91.8621 74.3755C91.7904 74.421 91.865 74.5301 91.9367 74.4846C92.967 73.8304 93.2896 72.5492 94.1519 71.7323C94.5542 71.3511 95.0735 71.0893 95.6385 71.1728C96.1325 71.2459 96.566 71.5237 97.0046 71.7445C97.4515 71.9844 97.9503 72.1109 98.4572 72.1128C98.9889 72.0929 99.5134 71.9824 100.008 71.786C101.129 71.3615 102.176 70.7629 103.112 70.012C104.184 69.1609 105.104 68.132 105.831 66.9698C105.875 66.8979 105.756 66.8419 105.711 66.9134H105.711Z" fill="white"/>
<path d="M100.915 71.3297C101.123 71.6948 101.454 71.9736 101.848 72.1165C102.242 72.2593 102.675 72.2568 103.067 72.1095C103.147 72.0795 103.104 71.9543 103.024 71.9844C102.659 72.1223 102.256 72.1245 101.889 71.9908C101.523 71.857 101.215 71.596 101.023 71.2549C100.982 71.1809 100.873 71.2561 100.915 71.3297Z" fill="white"/>
<path d="M97.3253 71.7914C97.5426 70.9596 98.0644 70.2405 98.7866 69.7776C98.8582 69.7318 98.7835 69.6227 98.712 69.6685C97.9614 70.1516 97.4199 70.901 97.1957 71.7671C97.1744 71.8497 97.3041 71.8735 97.3253 71.7914Z" fill="white"/>
<path d="M104.03 69.0779C103.92 68.9535 103.842 68.8037 103.805 68.6419C103.767 68.48 103.769 68.3113 103.812 68.1507C103.835 68.0685 103.705 68.0447 103.683 68.1265C103.636 68.304 103.633 68.4904 103.675 68.6693C103.716 68.8482 103.801 69.0142 103.921 69.1527C103.931 69.1667 103.947 69.1763 103.964 69.1795C103.981 69.1827 103.998 69.1792 104.013 69.1699C104.027 69.1599 104.037 69.1446 104.04 69.1274C104.043 69.1102 104.04 69.0924 104.03 69.0779V69.0779Z" fill="white"/>
<path d="M111.091 51.1657L106.661 58.6462L106.829 58.7353L105.329 61.5893L105.017 61.4234L104.031 63.0869L104.276 63.2282L102.668 66.0208L102.39 65.8595L87.9343 90.2702C87.5552 90.9091 86.939 91.3709 86.2209 91.5543C85.5028 91.7378 84.7415 91.6278 84.1042 91.2487L57.2306 75.2263C56.5939 74.8459 56.1336 74.2276 55.9507 73.5071C55.7679 72.7865 55.8775 72.0226 56.2555 71.3831L79.4122 32.2786C79.7913 31.6398 80.4075 31.1779 81.1256 30.9945C81.8436 30.8111 82.6049 30.921 83.2423 31.3001L110.116 47.3226C110.752 47.7031 111.212 48.3214 111.395 49.0419C111.578 49.7623 111.469 50.5261 111.091 51.1657V51.1657Z" fill="#3F3D56"/>
<path d="M85.0621 89.7391L58.0939 73.6604C57.8977 73.5431 57.7559 73.3525 57.6995 73.1304C57.6432 72.9083 57.6769 72.6729 57.7934 72.4757L81.1038 33.1111C81.2207 32.9142 81.4106 32.7719 81.6319 32.7153C81.8533 32.6588 82.0879 32.6927 82.2844 32.8095L109.253 48.8882C109.449 49.0055 109.591 49.1961 109.647 49.4182C109.703 49.6403 109.67 49.8758 109.553 50.0729L86.2428 89.4376C86.1259 89.6344 85.9359 89.7768 85.7146 89.8333C85.4933 89.8898 85.2586 89.856 85.0621 89.7391Z" fill="white"/>
<path d="M96.1401 40.2267C96.2714 40.2267 96.3778 40.1199 96.3778 39.9882C96.3778 39.8564 96.2714 39.7496 96.1401 39.7496C96.0088 39.7496 95.9023 39.8564 95.9023 39.9882C95.9023 40.1199 96.0088 40.2267 96.1401 40.2267Z" fill="white"/>
<path d="M94.6689 68.4251L72.1572 55.0034C72.0865 54.9617 72.0248 54.9064 71.9756 54.8407C71.9263 54.775 71.8905 54.7001 71.8701 54.6205C71.8498 54.5409 71.8453 54.458 71.8569 54.3766C71.8685 54.2952 71.8961 54.2169 71.9379 54.1462C71.9798 54.0755 72.0351 54.0138 72.1008 53.9647C72.1665 53.9155 72.2412 53.8798 72.3206 53.8597C72.4001 53.8396 72.4827 53.8354 72.5638 53.8474C72.6449 53.8594 72.7228 53.8873 72.793 53.9296L95.3048 67.3513C95.3754 67.393 95.4371 67.4483 95.4863 67.514C95.5356 67.5797 95.5714 67.6546 95.5918 67.7342C95.6122 67.8138 95.6166 67.8967 95.605 67.9781C95.5934 68.0595 95.5658 68.1378 95.524 68.2085C95.4821 68.2792 95.4268 68.3409 95.3611 68.39C95.2954 68.4392 95.2207 68.4749 95.1413 68.495C95.0618 68.5151 94.9792 68.5193 94.8981 68.5073C94.8171 68.4953 94.7392 68.4674 94.6689 68.4251H94.6689Z" fill="#E6E6E6"/>
<path d="M85.68 66.3455L78.2753 61.9307C78.205 61.8889 78.1436 61.8335 78.0947 61.7678C78.0457 61.7021 78.0101 61.6274 77.99 61.5479C77.9698 61.4684 77.9654 61.3857 77.9771 61.3045C77.9888 61.2233 78.0163 61.1452 78.058 61.0747C78.0998 61.0042 78.155 60.9426 78.2205 60.8935C78.286 60.8444 78.3604 60.8087 78.4397 60.7884C78.5189 60.7682 78.6013 60.7639 78.6822 60.7756C78.7631 60.7873 78.841 60.8149 78.9112 60.8569L86.316 65.2716C86.3862 65.3135 86.4476 65.3689 86.4965 65.4346C86.5455 65.5003 86.581 65.575 86.6012 65.6545C86.6214 65.734 86.6257 65.8167 86.6141 65.8979C86.6024 65.979 86.5749 66.0571 86.5331 66.1276C86.4914 66.1981 86.4362 66.2597 86.3707 66.3088C86.3052 66.3579 86.2308 66.3936 86.1515 66.4139C86.0723 66.4341 85.9899 66.4385 85.909 66.4267C85.8281 66.415 85.7503 66.3874 85.68 66.3455V66.3455Z" fill="#E6E6E6"/>
<path d="M82.7687 71.2618L75.364 66.847C75.2221 66.7624 75.1195 66.6247 75.0788 66.4641C75.0381 66.3036 75.0626 66.1335 75.1469 65.9911C75.2312 65.8487 75.3685 65.7457 75.5284 65.7049C75.6884 65.664 75.858 65.6885 75.9999 65.7731L83.4046 70.1879C83.4749 70.2298 83.5363 70.2852 83.5852 70.3509C83.6342 70.4165 83.6697 70.4913 83.6899 70.5708C83.7101 70.6502 83.7144 70.7329 83.7027 70.8141C83.6911 70.8953 83.6635 70.9734 83.6218 71.0439C83.58 71.1144 83.5249 71.176 83.4594 71.2251C83.3939 71.2742 83.3194 71.3099 83.2402 71.3301C83.161 71.3503 83.0786 71.3547 82.9977 71.343C82.9168 71.3313 82.839 71.3037 82.7687 71.2618V71.2618Z" fill="#E6E6E6"/>
<path d="M81.2769 73.78L73.8722 69.3652C73.8017 69.3234 73.7401 69.2681 73.691 69.2024C73.6419 69.1367 73.6061 69.0619 73.5858 68.9823C73.5655 68.9028 73.5611 68.82 73.5727 68.7386C73.5844 68.6573 73.6119 68.5791 73.6537 68.5085C73.6956 68.4379 73.7508 68.3763 73.8164 68.3271C73.882 68.278 73.9566 68.2423 74.036 68.2221C74.1154 68.202 74.1979 68.1977 74.2789 68.2096C74.3599 68.2215 74.4378 68.2493 74.5081 68.2914L81.9128 72.7062C81.9834 72.7479 82.0451 72.8032 82.0944 72.8689C82.1437 72.9346 82.1795 73.0094 82.1999 73.0891C82.2203 73.1687 82.2248 73.2516 82.2131 73.333C82.2015 73.4144 82.174 73.4927 82.1321 73.5634C82.0903 73.6341 82.0349 73.6958 81.9692 73.745C81.9035 73.7941 81.8288 73.8298 81.7493 73.8499C81.6699 73.87 81.5873 73.8742 81.5062 73.8622C81.4251 73.8502 81.3472 73.8223 81.2769 73.78V73.78Z" fill="#E6E6E6"/>
<path d="M88.3975 71.2451L72.6871 61.8785C72.5459 61.7935 72.444 61.6559 72.4037 61.4957C72.3634 61.3355 72.388 61.1658 72.4721 61.0238C72.5562 60.8818 72.693 60.779 72.8524 60.7379C73.0119 60.6968 73.1811 60.7208 73.323 60.8046L89.0333 70.1713C89.104 70.213 89.1657 70.2683 89.2149 70.334C89.2642 70.3997 89.3001 70.4745 89.3204 70.5542C89.3408 70.6338 89.3453 70.7167 89.3337 70.7981C89.322 70.8795 89.2945 70.9578 89.2527 71.0285C89.2108 71.0992 89.1554 71.1609 89.0897 71.2101C89.0241 71.2592 88.9493 71.2949 88.8699 71.3151C88.7904 71.3352 88.7078 71.3394 88.6267 71.3274C88.5456 71.3154 88.4677 71.2874 88.3975 71.2451V71.2451Z" fill="#E6E6E6"/>
<path d="M85.4026 83.2157L82.714 81.6127C82.473 81.4687 82.2989 81.2346 82.2298 80.9618C82.1608 80.6889 82.2025 80.3998 82.3458 80.1578C82.4891 79.9159 82.7222 79.7409 82.994 79.6713C83.2658 79.6017 83.554 79.6432 83.7953 79.7867L86.4839 81.3897C86.7253 81.5336 86.8998 81.7678 86.969 82.0407C87.0383 82.3137 86.9966 82.6031 86.8532 82.8452C86.7098 83.0874 86.4764 83.2624 86.2044 83.3319C85.9324 83.4014 85.644 83.3596 85.4026 83.2157Z" fill="#FFC107"/>
<path d="M90.4192 57.189C93.4628 57.189 95.9301 54.7133 95.9301 51.6593C95.9301 48.6053 93.4628 46.1295 90.4192 46.1295C87.3755 46.1295 84.9082 48.6053 84.9082 51.6593C84.9082 54.7133 87.3755 57.189 90.4192 57.189Z" fill="#FFC107"/>
<path d="M0.0654297 74.1301H74.6441V30.8064C74.6437 30.4818 74.515 30.1706 74.2863 29.941C74.0575 29.7115 73.7474 29.5824 73.4239 29.582H1.28565C0.962142 29.5824 0.651992 29.7115 0.423237 29.941C0.194482 30.1706 0.0658033 30.4818 0.0654297 30.8064V74.1301Z" fill="#CACACA"/>
<path d="M2.36914 31.2754H72.3394V71.1342H2.36914V31.2754Z" fill="white"/>
<path d="M1.00326e-10 72.9579V78.3041C-2.41228e-06 78.5257 0.0435007 78.7452 0.128025 78.9499C0.21255 79.1547 0.336442 79.3407 0.492626 79.4975C0.648809 79.6542 0.834229 79.7785 1.03829 79.8633C1.24236 79.9481 1.46107 79.9918 1.68195 79.9918H29.2084V90.5426H28.8427C28.814 90.5426 28.7856 90.5483 28.7591 90.5593C28.7326 90.5703 28.7085 90.5865 28.6882 90.6068C28.6679 90.6272 28.6518 90.6513 28.6408 90.6779C28.6298 90.7045 28.6242 90.7331 28.6242 90.7618V91.4957C28.6242 91.5245 28.6298 91.553 28.6408 91.5796C28.6518 91.6062 28.6679 91.6304 28.6882 91.6507C28.7085 91.6711 28.7326 91.6872 28.7591 91.6983C28.7856 91.7093 28.814 91.7149 28.8427 91.7149H45.9307C45.9594 91.7149 45.9878 91.7093 46.0143 91.6983C46.0408 91.6872 46.0649 91.6711 46.0852 91.6507C46.1055 91.6304 46.1216 91.6062 46.1326 91.5796C46.1436 91.553 46.1492 91.5245 46.1492 91.4957V90.7619C46.1492 90.7331 46.1436 90.7046 46.1326 90.678C46.1216 90.6514 46.1055 90.6272 46.0852 90.6068C46.0649 90.5865 46.0408 90.5703 46.0143 90.5593C45.9878 90.5483 45.9594 90.5426 45.9307 90.5426H45.565V79.9918H73.0914C73.3123 79.9918 73.531 79.9481 73.7351 79.8633C73.9392 79.7785 74.1246 79.6542 74.2808 79.4975C74.4369 79.3407 74.5608 79.1547 74.6454 78.9499C74.7299 78.7452 74.7734 78.5257 74.7734 78.3041V72.9579L1.00326e-10 72.9579Z" fill="#3F3D56"/>
<path d="M62.2138 44.6057H29.0786C28.8697 44.6057 28.6694 44.5225 28.5217 44.3743C28.374 44.2261 28.291 44.025 28.291 43.8154C28.291 43.6058 28.374 43.4048 28.5217 43.2566C28.6694 43.1084 28.8697 43.0251 29.0786 43.0251H62.2138C62.4227 43.0251 62.6231 43.1084 62.7708 43.2566C62.9185 43.4048 63.0015 43.6058 63.0015 43.8154C63.0015 44.025 62.9185 44.2261 62.7708 44.3743C62.6231 44.5225 62.4227 44.6057 62.2138 44.6057V44.6057Z" fill="#E6E6E6"/>
<path d="M51.0959 48.1733H40.1968C39.9879 48.1733 39.7876 48.09 39.6399 47.9418C39.4922 47.7936 39.4092 47.5926 39.4092 47.383C39.4092 47.1734 39.4922 46.9723 39.6399 46.8241C39.7876 46.6759 39.9879 46.5927 40.1968 46.5927H51.0959C51.3048 46.5927 51.5052 46.6759 51.6529 46.8241C51.8006 46.9723 51.8836 47.1734 51.8836 47.383C51.8836 47.5926 51.8006 47.7936 51.6529 47.9418C51.5052 48.09 51.3048 48.1733 51.0959 48.1733V48.1733Z" fill="#E6E6E6"/>
<path d="M51.0959 55.4098H40.1968C39.9879 55.4098 39.7876 55.3265 39.6399 55.1783C39.4922 55.0301 39.4092 54.829 39.4092 54.6194C39.4092 54.4098 39.4922 54.2088 39.6399 54.0606C39.7876 53.9124 39.9879 53.8291 40.1968 53.8291H51.0959C51.3048 53.8291 51.5052 53.9124 51.6529 54.0606C51.8006 54.2088 51.8836 54.4098 51.8836 54.6194C51.8836 54.829 51.8006 55.0301 51.6529 55.1783C51.5052 55.3265 51.3048 55.4098 51.0959 55.4098Z" fill="#E6E6E6"/>
<path d="M51.0969 59.1162H40.1978C40.0943 59.1162 39.9919 59.0958 39.8964 59.0561C39.8008 59.0164 39.714 58.9581 39.6408 58.8848C39.5677 58.8114 39.5097 58.7243 39.4701 58.6284C39.4305 58.5325 39.4102 58.4297 39.4102 58.3259C39.4102 58.2222 39.4305 58.1194 39.4701 58.0235C39.5097 57.9276 39.5677 57.8405 39.6408 57.7671C39.714 57.6937 39.8008 57.6355 39.8964 57.5958C39.9919 57.5561 40.0943 57.5356 40.1978 57.5356H51.0969C51.2003 57.5356 51.3027 57.5561 51.3983 57.5958C51.4938 57.6355 51.5806 57.6937 51.6538 57.7671C51.7269 57.8405 51.7849 57.9276 51.8245 58.0235C51.8641 58.1194 51.8845 58.2222 51.8845 58.3259C51.8845 58.4297 51.8641 58.5325 51.8245 58.6284C51.7849 58.7243 51.7269 58.8114 51.6538 58.8848C51.5806 58.9581 51.4938 59.0164 51.3983 59.0561C51.3027 59.0958 51.2003 59.1162 51.0969 59.1162V59.1162Z" fill="#E6E6E6"/>
<path d="M57.2097 51.7407H34.0855C33.8766 51.7407 33.6762 51.6575 33.5285 51.5093C33.3808 51.3611 33.2979 51.1601 33.2979 50.9505C33.2979 50.7409 33.3808 50.5398 33.5285 50.3916C33.6762 50.2434 33.8766 50.1602 34.0855 50.1602H57.2097C57.4186 50.1602 57.6189 50.2434 57.7666 50.3916C57.9143 50.5398 57.9973 50.7409 57.9973 50.9505C57.9973 51.1601 57.9143 51.3611 57.7666 51.5093C57.6189 51.6575 57.4186 51.7407 57.2097 51.7407V51.7407Z" fill="#E6E6E6"/>
<path d="M61.663 66.705H57.7055C57.3503 66.705 57.0097 66.5634 56.7585 66.3114C56.5073 66.0593 56.3662 65.7175 56.3662 65.3611C56.3662 65.0047 56.5073 64.6629 56.7585 64.4108C57.0097 64.1588 57.3503 64.0172 57.7055 64.0172H61.663C62.0182 64.0172 62.3588 64.1588 62.61 64.4108C62.8612 64.6629 63.0023 65.0047 63.0023 65.3611C63.0023 65.7175 62.8612 66.0593 62.61 66.3114C62.3588 66.5634 62.0182 66.705 61.663 66.705V66.705Z" fill="#FFC107"/>
<path d="M18.6602 56.9511C22.4647 56.9511 25.5489 53.8564 25.5489 50.0389C25.5489 46.2214 22.4647 43.1267 18.6602 43.1267C14.8557 43.1267 11.7715 46.2214 11.7715 50.0389C11.7715 53.8564 14.8557 56.9511 18.6602 56.9511Z" fill="#FFC107"/>
<path d="M99.2718 92.0001H0.182722C0.134472 91.9999 0.0882465 91.9806 0.0541778 91.9463C0.0201091 91.912 0.000976562 91.8656 0.000976562 91.8172C0.000976562 91.7688 0.0201091 91.7223 0.0541778 91.688C0.0882465 91.6538 0.134472 91.6344 0.182722 91.6343H99.2718C99.3201 91.6344 99.3663 91.6538 99.4004 91.688C99.4345 91.7223 99.4536 91.7688 99.4536 91.8172C99.4536 91.8656 99.4345 91.912 99.4004 91.9463C99.3663 91.9806 99.3201 91.9999 99.2718 92.0001V92.0001Z" fill="#CACACA"/>
<path d="M37.3221 30.4287C37.4655 30.4287 37.5818 30.3121 37.5818 30.1682C37.5818 30.0244 37.4655 29.9077 37.3221 29.9077C37.1787 29.9077 37.0625 30.0244 37.0625 30.1682C37.0625 30.3121 37.1787 30.4287 37.3221 30.4287Z" fill="white"/>
</g>
<defs>
<clipPath id="clip0_1427_2120">
<rect width="111.482" height="92" fill="white"/>
</clipPath>
</defs>
</svg>
