<svg width="141" height="92" viewBox="0 0 141 92" fill="none" xmlns="http://www.w3.org/2000/svg">
<g clip-path="url(#clip0_1427_2187)">
<path d="M134.873 61.5684C133.859 62.6643 132.602 63.48 131.239 64.1135H131.237C131.109 64.1737 130.98 64.2323 130.85 64.2877H130.849L130.847 64.2893L130.845 64.2877H130.844C130.844 64.2879 130.844 64.2881 130.844 64.2883C130.843 64.2885 130.843 64.2887 130.843 64.2889C130.843 64.289 130.843 64.2891 130.843 64.2892C130.842 64.2893 130.842 64.2893 130.842 64.2893H130.84L130.839 64.2877C130.837 64.2893 130.837 64.2893 130.835 64.2877L130.834 64.2893L130.832 64.2877H130.83C130.829 64.2893 130.829 64.2893 130.827 64.2877H130.826C129.913 64.6785 128.975 65.0103 128.019 65.281C122.395 66.8599 116.485 67.1655 110.726 66.1749C110.615 66.1554 110.507 66.1358 110.396 66.1163V52.909C110.505 52.8634 110.615 52.8178 110.726 52.7739C111.445 52.4791 112.172 52.2083 112.909 51.9613C113.968 51.6031 115.043 51.2959 116.132 51.0397C119.685 50.1885 123.352 49.8951 126.997 50.1702C127.66 50.219 128.321 50.2896 128.981 50.3819C130.362 50.5724 131.809 50.9045 133.083 51.481H133.084C133.27 51.5673 133.453 51.6568 133.634 51.7529C134.766 52.3603 135.72 53.1956 136.303 54.3403C136.512 54.7514 136.662 55.1893 136.75 55.6413V55.6446C136.783 55.8009 136.806 55.9589 136.824 56.1152C137.031 58.0431 136.224 60.1062 134.873 61.5684Z" fill="#F2F2F2"/>
<path d="M136.824 56.1151C136.808 56.1191 136.791 56.1213 136.775 56.1216C133.956 56.2437 131.142 56.425 128.331 56.6655H128.326C128.315 56.6671 128.305 56.6671 128.294 56.6687C125.408 56.9162 122.528 57.2262 119.654 57.5985C119.533 57.6148 119.412 57.6311 119.292 57.6457C117.305 57.9079 115.321 58.1988 113.341 58.5185C112.468 58.6602 111.596 58.8078 110.726 58.9614C110.615 58.9809 110.507 58.9989 110.396 59.02V58.5266C110.507 58.5055 110.617 58.4876 110.726 58.468C113.624 57.96 116.533 57.5166 119.452 57.1377C120.186 57.04 120.921 56.9477 121.657 56.8609C123.782 56.6069 125.911 56.3876 128.043 56.203C128.2 56.19 128.354 56.177 128.511 56.164C131.24 55.9344 133.973 55.7601 136.711 55.6413C136.724 55.6407 136.737 55.6418 136.75 55.6445C137.013 55.6673 137.069 56.0581 136.824 56.1151Z" fill="white"/>
<path d="M130.972 63.8078C127.461 63.8334 124.002 62.3599 121.518 59.9211C120.818 59.2303 120.2 58.4615 119.678 57.6301C119.511 57.3644 119.119 57.6574 119.285 57.9208C121.214 60.9821 124.427 63.1629 127.969 63.9647C128.974 64.1903 130.003 64.2992 131.035 64.2894C131.35 64.2871 131.284 63.8055 130.972 63.8078V63.8078Z" fill="white"/>
<path d="M116.132 51.0397C116.117 51.0855 116.09 51.1265 116.054 51.1588C116.018 51.1911 115.974 51.2135 115.926 51.2237C115.122 51.4323 114.344 51.7329 113.61 52.1192C112.537 52.6799 111.563 53.4085 110.726 54.2768C110.681 54.3207 110.638 54.3647 110.597 54.4103C110.528 54.4819 110.462 54.5552 110.396 54.6301V53.9202C110.502 53.8094 110.612 53.7003 110.726 53.5961C111.387 52.9694 112.12 52.4208 112.909 51.9613C113.968 51.6031 115.043 51.2959 116.132 51.0397Z" fill="white"/>
<path d="M133.374 51.3525C131.14 52.3025 129.272 53.9332 128.039 56.0071C128.014 56.0665 128.014 56.1332 128.039 56.1927C128.063 56.2523 128.11 56.2999 128.17 56.3253C128.23 56.3488 128.297 56.3485 128.357 56.3244C128.417 56.3004 128.465 56.2545 128.491 56.1962C129.667 54.2374 131.441 52.6989 133.558 51.8024C133.848 51.6796 133.665 51.2295 133.374 51.3525L133.374 51.3525Z" fill="white"/>
<path d="M140.106 37.523C139.725 38.9592 138.993 40.2602 138.083 41.4473L138.081 41.4489C137.997 41.5596 137.91 41.672 137.82 41.7795V41.7811C137.188 42.5513 136.506 43.2796 135.778 43.9614C133.161 46.4297 130.205 48.5199 126.997 50.1702C121.951 52.7788 116.311 54.3208 110.726 54.4087C110.683 54.4103 110.64 54.4103 110.597 54.4103C110.53 54.412 110.462 54.412 110.396 54.412V47.0112C110.503 46.8093 110.614 46.6074 110.726 46.4071C112.177 43.8221 113.947 41.4254 115.995 39.2718C116.045 39.2181 116.096 39.1644 116.147 39.1123C116.917 38.3079 117.724 37.542 118.568 36.8147C121.818 33.9873 125.572 31.7865 129.639 30.3259C130.951 29.8602 132.389 29.4873 133.787 29.414C133.993 29.4026 134.197 29.3977 134.402 29.3994C135.691 29.4173 136.926 29.7185 137.981 30.4643C138.358 30.7327 138.697 31.051 138.988 31.4103C139.09 31.5357 139.183 31.6643 139.274 31.7962V31.7979C140.363 33.4099 140.616 35.6065 140.106 37.523Z" fill="#F2F2F2"/>
<path d="M139.274 31.7962V31.7978C139.262 31.8084 139.249 31.8176 139.234 31.8255C136.799 33.2275 134.395 34.6805 132.022 36.1845C132.018 36.1862 132.017 36.1878 132.013 36.1894C132.004 36.196 131.994 36.202 131.984 36.2073C129.544 37.7542 127.139 39.3532 124.768 41.0044C124.669 41.0727 124.569 41.1428 124.468 41.2128C122.831 42.3575 121.211 43.5266 119.608 44.7202C116.581 46.977 113.62 49.3175 110.726 51.7415C110.615 51.8327 110.507 51.9255 110.396 52.0183V51.3849C110.505 51.2921 110.615 51.1992 110.726 51.1081C111.834 50.1816 112.953 49.2681 114.082 48.3676C114.419 48.0989 114.758 47.8303 115.097 47.5648C118.108 45.1924 121.186 42.9084 124.332 40.7129H124.333C124.952 40.2814 125.572 39.8537 126.192 39.4298C127.956 38.2281 129.74 37.0551 131.543 35.911C131.673 35.8279 131.804 35.7449 131.936 35.6618C134.244 34.2029 136.583 32.7917 138.951 31.4282C138.963 31.4213 138.975 31.4153 138.988 31.4103C139.234 31.3126 139.466 31.635 139.274 31.7962Z" fill="white"/>
<path d="M137.702 41.2996C134.605 42.9363 130.85 43.2217 127.506 42.2037C126.562 41.9141 125.654 41.5172 124.802 41.0208C124.529 40.8625 124.319 41.302 124.59 41.459C127.735 43.2832 131.603 43.7374 135.116 42.8191C136.113 42.5564 137.075 42.1799 137.984 41.697C138.262 41.5503 137.978 41.1538 137.702 41.2995V41.2996Z" fill="white"/>
<path d="M114.529 47.2573C114.376 46.4049 114.323 45.5378 114.372 44.6733C114.483 42.7019 115.093 40.7896 116.146 39.1125C116.917 38.3084 117.724 37.5424 118.568 36.8146C118.576 36.8622 118.572 36.911 118.555 36.9563C118.538 37.0015 118.509 37.0416 118.472 37.0726C117.858 37.6274 117.311 38.2507 116.841 38.9302C115.165 41.3515 114.511 44.3251 115.018 47.2171C115.026 47.2499 115.026 47.2842 115.017 47.3168C115.008 47.3494 114.99 47.3791 114.966 47.4031C114.931 47.4335 114.889 47.4542 114.843 47.4632C114.797 47.4721 114.75 47.4691 114.705 47.4544C114.661 47.4396 114.622 47.4137 114.591 47.3791C114.56 47.3445 114.539 47.3026 114.529 47.2573V47.2573Z" fill="white"/>
<path d="M133.984 29.1653C132.453 31.0333 131.563 33.3365 131.445 35.7396C131.451 35.8036 131.482 35.8628 131.532 35.9043C131.581 35.9458 131.645 35.9663 131.71 35.9613C131.774 35.9545 131.833 35.9235 131.875 35.8747C131.917 35.8259 131.938 35.7631 131.934 35.6993C132.056 33.424 132.905 31.2458 134.359 29.4789C134.558 29.2366 134.184 28.9225 133.984 29.1653Z" fill="white"/>
<path d="M116.946 34.5155V34.5171C116.935 34.6572 116.922 34.7956 116.907 34.934V34.9372C116.792 35.9224 116.614 36.8993 116.372 37.8617C116.257 38.3339 116.132 38.8029 115.995 39.2718C115.979 39.3321 115.961 39.3923 115.943 39.4509V39.4526C115.541 40.8165 115.061 42.1566 114.505 43.4664C113.482 45.8779 112.216 48.1811 110.726 50.3411C110.619 50.4991 110.508 50.657 110.396 50.8133V25.3139C110.507 25.3074 110.615 25.3074 110.726 25.3106C110.778 25.3106 110.831 25.3122 110.883 25.3155C111.348 25.3396 111.806 25.4279 112.246 25.5777C112.4 25.6281 112.55 25.6851 112.698 25.7486C114.493 26.527 115.903 28.2432 116.515 30.1304C116.974 31.5438 117.066 33.0305 116.946 34.5155Z" fill="#F2F2F2"/>
<path d="M112.698 25.7487C112.694 25.7646 112.688 25.78 112.68 25.7943C112.014 27.0758 111.362 28.3638 110.726 29.6583C110.615 29.8814 110.505 30.1061 110.396 30.3291V29.2219C110.505 29.0004 110.615 28.779 110.726 28.5575C111.218 27.5708 111.718 26.5883 112.226 25.6103C112.232 25.5988 112.238 25.5879 112.246 25.5777C112.397 25.3628 112.772 25.5093 112.698 25.7487Z" fill="white"/>
<path d="M116.999 34.7776C116.969 34.8297 116.94 34.8818 116.907 34.9339C116.424 35.7671 115.849 36.5448 115.192 37.2526C113.932 38.6061 112.414 39.7 110.726 40.4718C110.617 40.5239 110.507 40.5728 110.396 40.6184V40.0892C110.507 40.0403 110.617 39.9898 110.726 39.9377C113.17 38.7839 115.2 36.9196 116.545 34.5936C116.564 34.5604 116.591 34.5317 116.622 34.5094C116.654 34.4872 116.69 34.4719 116.728 34.4647C116.766 34.4574 116.805 34.4583 116.843 34.4674C116.88 34.4764 116.916 34.4934 116.946 34.5171C116.967 34.5307 116.985 34.5483 116.999 34.5688C117.013 34.5893 117.022 34.6123 117.027 34.6365C117.032 34.6607 117.032 34.6856 117.027 34.7098C117.022 34.734 117.013 34.7571 116.999 34.7776V34.7776Z" fill="white"/>
<path d="M110.725 5.37345V17.7487H110.396V17.6168H0.32905V17.7487H0V5.37345C0.001413 3.94875 0.573882 2.58281 1.59177 1.57539C2.60966 0.567977 3.98981 0.00139846 5.42932 0H105.296C106.735 0.00139846 108.116 0.567977 109.133 1.57539C110.151 2.58281 110.724 3.94875 110.725 5.37345V5.37345Z" fill="#6F42C1"/>
<path d="M105.296 0H5.42932C3.98981 0.00139846 2.60966 0.567977 1.59177 1.57539C0.573882 2.58281 0.001413 3.94875 0 5.37345V76.0425C0.001413 77.4672 0.573882 78.8331 1.59177 79.8405C2.60966 80.8479 3.98981 81.4145 5.42932 81.4159H105.296C106.735 81.4145 108.116 80.8479 109.133 79.8405C110.151 78.8331 110.724 77.4672 110.725 76.0425V5.37345C110.724 3.94875 110.151 2.58281 109.133 1.57539C108.116 0.567977 106.735 0.00139846 105.296 0V0ZM110.396 76.0425C110.394 77.3807 109.857 78.6636 108.9 79.6099C107.944 80.5562 106.648 81.0886 105.296 81.0903H5.42932C4.07717 81.0886 2.7809 80.5562 1.82479 79.6099C0.868676 78.6636 0.330775 77.3807 0.32905 76.0425V5.37345C0.330775 4.03522 0.868676 2.75229 1.82479 1.80601C2.7809 0.85974 4.07717 0.327371 5.42932 0.325664H105.296C106.648 0.327372 107.944 0.85974 108.9 1.80601C109.857 2.75229 110.394 4.03522 110.396 5.37345V76.0425Z" fill="#3F3D56"/>
<path d="M22.3755 12.131C24.1927 12.131 25.666 10.6729 25.666 8.87431C25.666 7.07572 24.1927 5.61768 22.3755 5.61768C20.5582 5.61768 19.085 7.07572 19.085 8.87431C19.085 10.6729 20.5582 12.131 22.3755 12.131Z" fill="white"/>
<path d="M88.3501 12.131C90.1674 12.131 91.6406 10.6729 91.6406 8.87431C91.6406 7.07572 90.1674 5.61768 88.3501 5.61768C86.5328 5.61768 85.0596 7.07572 85.0596 8.87431C85.0596 10.6729 86.5328 12.131 88.3501 12.131Z" fill="white"/>
<path d="M31.8821 45.1862H12.3075C11.4783 45.1853 10.6832 44.8588 10.0968 44.2784C9.51047 43.6981 9.18063 42.9112 9.17969 42.0905V32.934C9.18063 32.1133 9.51047 31.3265 10.0968 30.7461C10.6832 30.1658 11.4783 29.8393 12.3075 29.8384H31.8821C32.7114 29.8393 33.5064 30.1658 34.0928 30.7461C34.6792 31.3265 35.009 32.1133 35.0099 32.934V42.0905C35.009 42.9112 34.6792 43.6981 34.0928 44.2784C33.5064 44.8588 32.7114 45.1853 31.8821 45.1862V45.1862Z" fill="#6F42C1"/>
<path d="M65.1819 45.1862H45.6073C44.7781 45.1853 43.983 44.8588 43.3967 44.2784C42.8103 43.6981 42.4804 42.9112 42.4795 42.0905V32.934C42.4804 32.1133 42.8103 31.3265 43.3967 30.7461C43.983 30.1658 44.7781 29.8393 45.6073 29.8384H65.1819C66.0111 29.8393 66.8062 30.1658 67.3926 30.7461C67.9789 31.3265 68.3088 32.1133 68.3097 32.934V42.0905C68.3088 42.9112 67.9789 43.6981 67.3926 44.2784C66.8062 44.8588 66.0111 45.1853 65.1819 45.1862V45.1862Z" fill="#6F42C1"/>
<path d="M65.1819 68.8442H45.6074C44.753 68.8433 43.9339 68.5069 43.3297 67.909C42.7256 67.3111 42.3857 66.5004 42.3848 65.6548V56.4982C42.3857 55.6526 42.7256 54.8419 43.3297 54.2439C43.9339 53.646 44.753 53.3097 45.6074 53.3087H65.1819C66.0363 53.3097 66.8555 53.646 67.4596 54.2439C68.0638 54.8419 68.4036 55.6526 68.4046 56.4982V65.6548C68.4036 66.5004 68.0638 67.3111 67.4596 67.909C66.8555 68.5069 66.0363 68.8433 65.1819 68.8442V68.8442Z" fill="#F2F2F2"/>
<path d="M31.8187 68.8442H12.2441C11.3897 68.8433 10.5706 68.5069 9.96643 67.909C9.36228 67.3111 9.02245 66.5004 9.02148 65.6548V56.4982C9.02245 55.6526 9.36228 54.8419 9.96643 54.2439C10.5706 53.646 11.3897 53.3097 12.2441 53.3087H31.8187C32.6731 53.3097 33.4922 53.646 34.0963 54.2439C34.7005 54.8419 35.0403 55.6526 35.0413 56.4982V65.6548C35.0403 66.5004 34.7005 67.3111 34.0963 67.909C33.4922 68.5069 32.6731 68.8433 31.8187 68.8442V68.8442Z" fill="#F2F2F2"/>
<path d="M98.4817 68.8442H78.9072C78.0528 68.8433 77.2337 68.5069 76.6295 67.909C76.0254 67.3111 75.6855 66.5004 75.6846 65.6548V56.4982C75.6855 55.6526 76.0254 54.8419 76.6295 54.2439C77.2337 53.646 78.0528 53.3097 78.9072 53.3087H98.4817C99.3361 53.3097 100.155 53.646 100.759 54.2439C101.364 54.8419 101.703 55.6526 101.704 56.4982V65.6548C101.703 66.5004 101.364 67.3111 100.759 67.909C100.155 68.5069 99.3361 68.8433 98.4817 68.8442V68.8442Z" fill="#F2F2F2"/>
<path d="M98.4817 45.2046H78.9072C78.0528 45.2036 77.2337 44.8673 76.6295 44.2693C76.0254 43.6714 75.6855 42.8607 75.6846 42.0151V32.8585C75.6855 32.0129 76.0254 31.2022 76.6295 30.6043C77.2337 30.0064 78.0528 29.67 78.9072 29.6691H98.4817C99.3361 29.67 100.155 30.0064 100.759 30.6043C101.364 31.2022 101.703 32.0129 101.704 32.8585V42.0151C101.703 42.8607 101.364 43.6714 100.759 44.2693C100.155 44.8673 99.3361 45.2036 98.4817 45.2046Z" fill="#F2F2F2"/>
<path d="M22.095 42.7655C25.0264 42.7655 27.4029 40.4136 27.4029 37.5123C27.4029 34.611 25.0264 32.259 22.095 32.259C19.1635 32.259 16.7871 34.611 16.7871 37.5123C16.7871 40.4136 19.1635 42.7655 22.095 42.7655Z" fill="white"/>
<path d="M21.5687 39.5163C21.4493 39.5165 21.333 39.4783 21.2375 39.4074L21.2316 39.403L19.9842 38.4578C19.9263 38.414 19.8778 38.3594 19.8413 38.297C19.8047 38.2346 19.781 38.1657 19.7714 38.0943C19.7618 38.0229 19.7666 37.9502 19.7853 37.8806C19.8041 37.811 19.8366 37.7457 19.8809 37.6885C19.9252 37.6313 19.9804 37.5833 20.0435 37.5472C20.1065 37.5111 20.1761 37.4877 20.2483 37.4783C20.3205 37.4689 20.3939 37.4736 20.4642 37.4923C20.5346 37.5109 20.6005 37.5431 20.6583 37.587L21.4662 38.2002L23.3756 35.7357C23.4199 35.6786 23.4751 35.6306 23.5381 35.5946C23.6011 35.5585 23.6707 35.5351 23.7428 35.5257C23.815 35.5163 23.8883 35.521 23.9586 35.5396C24.0289 35.5583 24.0948 35.5904 24.1526 35.6342L24.1407 35.6502L24.1529 35.6345C24.2694 35.7231 24.3456 35.8538 24.3648 35.998C24.3841 36.1421 24.3447 36.288 24.2554 36.4035L22.0096 39.3022C21.9577 39.369 21.8909 39.4231 21.8144 39.4602C21.7379 39.4973 21.6539 39.5165 21.5687 39.5163V39.5163Z" fill="#6F42C1"/>
<path d="M55.4895 42.6901C58.421 42.6901 60.7974 40.3381 60.7974 37.4368C60.7974 34.5356 58.421 32.1836 55.4895 32.1836C52.5581 32.1836 50.1816 34.5356 50.1816 37.4368C50.1816 40.3381 52.5581 42.6901 55.4895 42.6901Z" fill="white"/>
<path d="M54.9638 39.4408C54.8444 39.4411 54.7281 39.4028 54.6326 39.3319L54.6266 39.3276L53.3792 38.3823C53.2626 38.2939 53.1862 38.1631 53.1669 38.0189C53.1476 37.8747 53.187 37.7288 53.2764 37.6134C53.3658 37.4979 53.4979 37.4223 53.6436 37.4032C53.7893 37.3841 53.9367 37.4231 54.0534 37.5116L54.8613 38.1247L56.7707 35.6603C56.8149 35.6031 56.8702 35.5552 56.9332 35.5191C56.9962 35.4831 57.0658 35.4597 57.1379 35.4503C57.2101 35.4408 57.2834 35.4456 57.3537 35.4642C57.424 35.4828 57.4899 35.515 57.5476 35.5588L57.5358 35.5747L57.548 35.559C57.6645 35.6476 57.7407 35.7784 57.7599 35.9225C57.7791 36.0667 57.7398 36.2125 57.6505 36.328L55.4047 39.2268C55.3527 39.2936 55.2859 39.3477 55.2095 39.3848C55.133 39.4219 55.0489 39.4411 54.9638 39.4408V39.4408Z" fill="#6F42C1"/>
<path d="M91.3618 62.2262C91.5362 62.0375 91.6666 61.8132 91.7439 61.5692C91.8213 61.3252 91.8436 61.0674 91.8094 60.8139C91.7751 60.5604 91.6851 60.3175 91.5458 60.1021C91.4064 59.8868 91.221 59.7043 91.0027 59.5676L88.0394 43.9076L84.4355 45.2302L88.4816 60.2076C88.2737 60.5858 88.2133 61.0264 88.3118 61.4458C88.4102 61.8651 88.6607 62.2342 89.0158 62.483C89.3708 62.7318 89.8057 62.8431 90.2381 62.7958C90.6705 62.7485 91.0703 62.5458 91.3618 62.2262V62.2262Z" fill="#A0616A"/>
<path d="M62.6063 38.3307C62.6153 38.428 62.6165 38.5258 62.6099 38.6232L69.617 43.9607L71.6041 43.1532L73.2275 45.9619L69.8501 47.7299C69.5773 47.8727 69.265 47.9241 68.9601 47.8763C68.6553 47.8285 68.3743 47.6842 68.1594 47.4649L61.1554 40.3183C60.7847 40.4011 60.3972 40.3701 60.0447 40.2297C59.6921 40.0892 59.3911 39.8458 59.1817 39.5319C58.9723 39.218 58.8645 38.8484 58.8725 38.4723C58.8805 38.0963 59.004 37.7315 59.2266 37.4266C59.4491 37.1217 59.7602 36.8911 60.1185 36.7655C60.4767 36.6398 60.8651 36.6251 61.232 36.7232C61.5989 36.8214 61.9269 37.0278 62.1724 37.3149C62.4179 37.6021 62.5692 37.9564 62.6063 38.3307H62.6063Z" fill="#A0616A"/>
<path d="M78.9766 90.0214H76.9597L76 83.9497L78.9771 83.9499L78.9766 90.0214Z" fill="#A0616A"/>
<path d="M79.4911 91.9566L72.9873 91.9564V91.875C72.9873 91.546 73.0528 91.2202 73.18 90.9162C73.3072 90.6122 73.4937 90.336 73.7287 90.1034C73.9638 89.8708 74.2429 89.6862 74.55 89.5603C74.8571 89.4344 75.1863 89.3696 75.5188 89.3696H75.5189L79.4912 89.3698L79.4911 91.9566Z" fill="#2F2E41"/>
<path d="M86.545 90.0214H84.528L83.5684 83.9497L86.5454 83.9499L86.545 90.0214Z" fill="#A0616A"/>
<path d="M87.0594 91.9566L80.5557 91.9564V91.875C80.5557 91.546 80.6211 91.2202 80.7483 90.9162C80.8756 90.6122 81.062 90.336 81.2971 90.1034C81.5322 89.8708 81.8112 89.6862 82.1184 89.5603C82.4255 89.4344 82.7547 89.3696 83.0871 89.3696H83.0873L87.0595 89.3698L87.0594 91.9566Z" fill="#2F2E41"/>
<path d="M76.5408 88.8215C76.3567 88.8216 76.1791 88.7537 76.0429 88.6311C75.9067 88.5084 75.8217 88.3398 75.8046 88.1584L74.0469 64.7612L74.1299 64.7545L86.226 63.7705L86.2292 63.8556L87.1908 88.0932C87.1945 88.1916 87.1781 88.2898 87.1426 88.3819C87.1071 88.4739 87.0532 88.558 86.9841 88.6289C86.9151 88.6999 86.8322 88.7563 86.7406 88.7949C86.649 88.8334 86.5505 88.8533 86.4509 88.8533H84.0792C83.9021 88.8541 83.7307 88.7918 83.5963 88.6777C83.4619 88.5636 83.3736 88.4053 83.3475 88.232L80.1267 68.6523C80.1235 68.6321 80.1128 68.6138 80.0966 68.601C80.0805 68.5883 80.0601 68.582 80.0394 68.5835C80.0188 68.585 79.9995 68.5941 79.9854 68.609C79.9712 68.6239 79.9633 68.6436 79.9631 68.664L79.817 87.996C79.8155 88.1827 79.7421 88.3618 79.6118 88.4968C79.4815 88.6318 79.304 88.7126 79.1156 88.7226L76.5805 88.8204C76.5672 88.8211 76.5539 88.8215 76.5408 88.8215Z" fill="#2F2E41"/>
<path d="M78.6053 35.1921C80.8371 35.1921 82.6462 33.4016 82.6462 31.1928C82.6462 28.984 80.8371 27.1935 78.6053 27.1935C76.3736 27.1935 74.5645 28.984 74.5645 31.1928C74.5645 33.4016 76.3736 35.1921 78.6053 35.1921Z" fill="#A0616A"/>
<path d="M79.3883 66.2533C77.6221 66.2481 75.8644 66.0104 74.1616 65.5463C73.9977 65.4991 73.8553 65.3975 73.7583 65.2584C73.6613 65.1194 73.6157 64.9516 73.6292 64.7832C74.1732 56.6916 74.3011 50.4122 73.1572 46.0675C72.6696 44.2158 72.891 42.2655 73.7644 40.7169C75.079 38.3863 77.4951 36.9678 80.0724 37.0167C80.1955 37.019 80.3199 37.0234 80.4455 37.0298C84.3567 37.2291 87.4045 40.731 87.2394 44.8362L86.4527 64.4035C86.4498 64.5462 86.4043 64.685 86.3219 64.8022C86.2395 64.9193 86.1238 65.0097 85.9895 65.062C83.8791 65.8477 81.6431 66.2513 79.3883 66.2533Z" fill="#3F3D56"/>
<path d="M73.8214 47.5698L70.7946 43.8989C70.7084 43.7944 70.6461 43.6728 70.6117 43.5424C70.5773 43.4119 70.5718 43.2757 70.5954 43.1429C70.6191 43.0101 70.6714 42.884 70.7487 42.773C70.8261 42.662 70.9267 42.5688 71.0437 42.4998L75.1439 40.0818C75.6863 39.6486 76.3802 39.446 77.0733 39.5184C77.7665 39.5909 78.4023 39.9324 78.8414 40.4681C79.2805 41.0038 79.487 41.69 79.4156 42.3762C79.3443 43.0624 79.0009 43.6926 78.4607 44.1286L75.2562 47.6088C75.1645 47.7084 75.0521 47.7873 74.9267 47.84C74.8014 47.8928 74.666 47.9182 74.5298 47.9145C74.3937 47.9108 74.2599 47.8781 74.1376 47.8186C74.0154 47.7591 73.9075 47.6743 73.8214 47.5698V47.5698Z" fill="#3F3D56"/>
<path d="M83.3439 47.1092C83.2195 47.0542 83.1087 46.9732 83.0188 46.8719C82.929 46.7705 82.8623 46.6512 82.8233 46.522L81.4607 42.0107C81.1649 41.386 81.1315 40.6707 81.3678 40.0217C81.6042 39.3727 82.091 38.8429 82.7214 38.5486C83.3519 38.2543 84.0745 38.2195 84.7309 38.4518C85.3872 38.6841 85.9237 39.1646 86.2226 39.7878L88.8577 43.7265C88.9329 43.8389 88.9828 43.966 89.0038 44.0992C89.0249 44.2324 89.0167 44.3685 88.9799 44.4983C88.943 44.6281 88.8783 44.7485 88.7902 44.8513C88.702 44.9541 88.5926 45.0369 88.4692 45.094L84.1333 47.1027C84.0099 47.16 83.8755 47.1902 83.7393 47.1913C83.603 47.1924 83.4682 47.1644 83.3439 47.1092V47.1092Z" fill="#3F3D56"/>
<path d="M80.6021 34.4744L77.6067 33.7958C77.2978 33.7258 76.9266 33.5923 76.8837 33.2815C76.8261 32.8638 77.4335 32.5728 77.3774 32.1549C77.3232 31.7502 76.7699 31.698 76.3754 31.5785C76.008 31.451 75.7052 31.1869 75.531 30.8423C75.3568 30.4976 75.325 30.0994 75.4422 29.732C75.0154 30.3273 74.0402 30.3783 73.4866 29.896C72.9329 29.4137 72.8267 28.5386 73.1592 27.887C73.3388 27.5669 73.5922 27.2933 73.8988 27.0885C74.2054 26.8836 74.5565 26.7533 74.9236 26.708C75.6616 26.6252 76.4079 26.7628 77.0662 27.1033C77.1101 26.642 77.6921 26.4549 78.1603 26.4508C79.1329 26.462 80.0778 26.773 80.8634 27.3406C81.6491 27.9081 82.2364 28.7039 82.5437 29.6173C83.1183 31.4495 82.734 33.4579 81.1265 34.5299L80.6021 34.4744Z" fill="#2F2E41"/>
<path d="M110.772 92H48.0884C48.0447 92 48.0029 91.9828 47.972 91.9523C47.9412 91.9218 47.9238 91.8803 47.9238 91.8372C47.9238 91.794 47.9412 91.7525 47.972 91.722C48.0029 91.6915 48.0447 91.6743 48.0884 91.6743H110.772C110.816 91.6743 110.858 91.6915 110.889 91.722C110.919 91.7525 110.937 91.794 110.937 91.8372C110.937 91.8803 110.919 91.9218 110.889 91.9523C110.858 91.9828 110.816 92 110.772 92Z" fill="#3F3D56"/>
</g>
<defs>
<clipPath id="clip0_1427_2187">
<rect width="140.359" height="92" fill="white"/>
</clipPath>
</defs>
</svg>
